RobotoSerifMicro-RegularWideItalic.ufo
<glyph name="numbersign" format="2">
  <advance width="934"/>
  <unicode hex="0023"/>
  <outline>
    <contour>
      <point x="143" y="0" type="line"/>
      <point x="212" y="0" type="line"/>
      <point x="557" y="780" type="line"/>
      <point x="489" y="780" type="line"/>
    </contour>
    <contour>
      <point x="59" y="229" type="line"/>
      <point x="798" y="229" type="line"/>
      <point x="809" y="291" type="line"/>
      <point x="70" y="291" type="line"/>
    </contour>
    <contour>
      <point x="179" y="509" type="line"/>
      <point x="918" y="509" type="line"/>
      <point x="931" y="571" type="line"/>
      <point x="191" y="571" type="line"/>
    </contour>
    <contour>
      <point x="424" y="0" type="line"/>
      <point x="492" y="0" type="line"/>
      <point x="837" y="780" type="line"/>
      <point x="767" y="780" type="line"/>
    </contour>
  </outline>
</glyph>
<glyph name="quotesingle" format="2">
  <advance width="300"/>
  <unicode hex="0027"/>
  <outline>
    <contour>
      <point x="326" y="769" type="line"/>
      <point x="297" y="675"/>
      <point x="254" y="613"/>
      <point x="208" y="467" type="curve"/>
      <point x="138" y="467" type="line"/>
      <point x="184" y="613"/>
      <point x="177" y="674"/>
      <point x="206" y="769" type="curve"/>
    </contour>
  </outline>
</glyph>
<glyph name="asterisk" format="2">
  <advance width="636"/>
  <unicode hex="002A"/>
  <outline>
    <contour>
      <point x="141" y="657" type="curve"/>
      <point x="204" y="720" type="line"/>
      <point x="270" y="676"/>
      <point x="289" y="639"/>
      <point x="356" y="596" type="curve"/>
      <point x="327" y="569" type="line"/>
      <point x="260" y="613"/>
      <point x="203" y="616"/>
    </contour>
    <contour>
      <point x="126" y="443" type="curve"/>
      <point x="96" y="512" type="line"/>
      <point x="181" y="538"/>
      <point x="235" y="534"/>
      <point x="324" y="562" type="curve"/>
      <point x="336" y="531" type="line"/>
      <point x="247" y="504"/>
      <point x="210" y="469"/>
    </contour>
    <contour>
      <point x="357" y="343" type="curve"/>
      <point x="260" y="343" type="line"/>
      <point x="282" y="420"/>
      <point x="322" y="456"/>
      <point x="345" y="526" type="curve"/>
      <point x="385" y="522" type="line"/>
      <point x="363" y="451"/>
      <point x="379" y="410"/>
    </contour>
    <contour>
      <point x="395" y="778" type="curve"/>
      <point x="491" y="778" type="line"/>
      <point x="469" y="702"/>
      <point x="429" y="666"/>
      <point x="407" y="595" type="curve"/>
      <point x="367" y="599" type="line"/>
      <point x="389" y="670"/>
      <point x="373" y="711"/>
    </contour>
    <contour>
      <point x="544" y="401" type="line"/>
      <point x="479" y="445"/>
      <point x="461" y="482"/>
      <point x="395" y="525" type="curve"/>
      <point x="424" y="552" type="line"/>
      <point x="490" y="508"/>
      <point x="547" y="505"/>
      <point x="610" y="464" type="curve"/>
    </contour>
    <contour>
      <point x="658" y="614" type="line"/>
      <point x="572" y="587"/>
      <point x="515" y="587"/>
      <point x="426" y="559" type="curve"/>
      <point x="415" y="590" type="line"/>
      <point x="504" y="617"/>
      <point x="543" y="656"/>
      <point x="628" y="683" type="curve"/>
    </contour>
  </outline>
</glyph>
<glyph name="comma" format="2">
  <advance width="418"/>
  <unicode hex="002C"/>
  <outline>
    <contour>
      <point x="33" y="-182" type="line"/>
      <point x="209" y="-148"/>
      <point x="281" y="-34"/>
      <point x="281" y="51" type="curve" smooth="yes"/>
      <point x="281" y="112"/>
      <point x="240" y="142"/>
      <point x="173" y="142" type="curve" smooth="yes"/>
      <point x="108" y="142"/>
      <point x="67" y="111"/>
      <point x="67" y="66" type="curve" smooth="yes"/>
      <point x="67" y="29"/>
      <point x="98" y="3"/>
      <point x="149" y="3" type="curve" smooth="yes"/>
      <point x="180" y="3"/>
      <point x="209" y="12"/>
      <point x="222" y="36" type="curve"/>
      <point x="219" y="37"/>
      <point x="209" y="36"/>
      <point x="203" y="18" type="curve"/>
      <point x="180" y="-64"/>
      <point x="126" y="-109"/>
      <point x="-22" y="-126" type="curve"/>
    </contour>
  </outline>
</glyph>
<glyph name="period" format="2">
  <advance width="389"/>
  <unicode hex="002E"/>
  <outline>
    <contour>
      <point x="261" y="66" type="curve" smooth="yes"/>
      <point x="261" y="112"/>
      <point x="218" y="142"/>
      <point x="160" y="142" type="curve" smooth="yes"/>
      <point x="103" y="142"/>
      <point x="61" y="112"/>
      <point x="61" y="66" type="curve" smooth="yes"/>
      <point x="61" y="21"/>
      <point x="103" y="-10"/>
      <point x="160" y="-10" type="curve" smooth="yes"/>
      <point x="218" y="-10"/>
      <point x="261" y="21"/>
    </contour>
  </outline>
</glyph>
<glyph name="four" format="2">
  <advance width="686"/>
  <unicode hex="0034"/>
  <outline>
    <contour>
      <point x="-4" y="117" type="line"/>
      <point x="603" y="117" type="line"/>
      <point x="622" y="177" type="line"/>
      <point x="51" y="177" type="line"/>
      <point x="52" y="144" type="line"/>
      <point x="539" y="626" type="line"/>
      <point x="557" y="648" type="line"/>
      <point x="483" y="648" type="line"/>
      <point x="19" y="189" type="line"/>
    </contour>
    <contour>
      <point x="404" y="-72" type="line"/>
      <point x="624" y="648" type="line"/>
      <point x="524" y="648" type="line"/>
      <point x="528" y="636" type="line"/>
      <point x="312" y="-72" type="line"/>
    </contour>
  </outline>
</glyph>
<glyph name="less" format="2">
  <advance width="686"/>
  <unicode hex="003C"/>
  <outline>
    <contour>
      <point x="528" y="108" type="line"/>
      <point x="75" y="297" type="line"/>
      <point x="98" y="373" type="line"/>
      <point x="667" y="562" type="line"/>
      <point x="644" y="488" type="line"/>
      <point x="107" y="314" type="line"/>
      <point x="119" y="351" type="line"/>
      <point x="549" y="177" type="line"/>
    </contour>
  </outline>
</glyph>
<glyph name="Y" format="2">
  <advance width="843"/>
  <unicode hex="0059"/>
  <anchor x="443" y="741" name="top"/>
  <anchor x="443" y="0" name="bottom"/>
  <outline>
    <contour>
      <point x="128" y="0" type="line"/>
      <point x="494" y="0" type="line"/>
      <point x="512" y="58" type="line"/>
      <point x="486" y="58" type="line" smooth="yes"/>
      <point x="425" y="58"/>
      <point x="380" y="65"/>
      <point x="389" y="94" type="curve" smooth="yes"/>
      <point x="452" y="298" type="line"/>
      <point x="432" y="261" type="line"/>
      <point x="778" y="600" type="line" smooth="yes"/>
      <point x="819" y="639"/>
      <point x="848" y="652"/>
      <point x="893" y="652" type="curve" smooth="yes"/>
      <point x="906" y="652" type="line"/>
      <point x="924" y="710" type="line"/>
      <point x="641" y="710" type="line"/>
      <point x="623" y="652" type="line"/>
      <point x="636" y="652" type="line" smooth="yes"/>
      <point x="683" y="652"/>
      <point x="727" y="642"/>
      <point x="722" y="629" type="curve"/>
      <point x="391" y="301" type="line"/>
      <point x="427" y="302" type="line"/>
      <point x="290" y="641" type="line"/>
      <point x="293" y="648"/>
      <point x="340" y="652"/>
      <point x="387" y="652" type="curve" smooth="yes"/>
      <point x="405" y="652" type="line"/>
      <point x="422" y="710" type="line"/>
      <point x="130" y="710" type="line"/>
      <point x="112" y="652" type="line"/>
      <point x="125" y="652" type="line" smooth="yes"/>
      <point x="171" y="652"/>
      <point x="191" y="645"/>
      <point x="206" y="609" type="curve" smooth="yes"/>
      <point x="350" y="262" type="line"/>
      <point x="354" y="298" type="line"/>
      <point x="291" y="94" type="line" smooth="yes"/>
      <point x="283" y="65"/>
      <point x="234" y="58"/>
      <point x="172" y="58" type="curve" smooth="yes"/>
      <point x="147" y="58" type="line"/>
    </contour>
  </outline>
</glyph>
<glyph name="underscore" format="2">
  <advance width="672"/>
  <unicode hex="005F"/>
  <outline>
    <contour>
      <point x="-7" y="-98" type="line"/>
      <point x="-11" y="-152" type="line"/>
      <point x="679" y="-152" type="line"/>
      <point x="683" y="-98" type="line"/>
    </contour>
  </outline>
</glyph>
<glyph name="l" format="2">
  <advance width="429"/>
  <unicode hex="006C"/>
  <anchor x="227" y="746" name="top"/>
  <anchor x="348" y="735" name="right"/>
  <anchor x="411" y="391" name="mid"/>
  <anchor x="230" y="0" name="bottom"/>
  <outline>
    <contour>
      <point x="216" y="218" type="curve" smooth="yes"/>
      <point x="385" y="780" type="line"/>
      <point x="166" y="780" type="line"/>
      <point x="151" y="727" type="line"/>
      <point x="162" y="725" type="line" smooth="yes"/>
      <point x="225" y="714"/>
      <point x="268" y="701"/>
      <point x="264" y="682" type="curve" smooth="yes"/>
      <point x="126" y="223" type="line" smooth="yes"/>
      <point x="95" y="117"/>
      <point x="84" y="86"/>
      <point x="84" y="58" type="curve" smooth="yes"/>
      <point x="84" y="20"/>
      <point x="120" y="0"/>
      <point x="180" y="0" type="curve" smooth="yes"/>
      <point x="224" y="0"/>
      <point x="268" y="0"/>
      <point x="312" y="0" type="curve"/>
      <point x="324" y="57" type="line"/>
      <point x="283" y="57"/>
      <point x="244" y="57"/>
      <point x="204" y="57" type="curve" smooth="yes"/>
      <point x="186" y="57"/>
      <point x="178" y="62"/>
      <point x="178" y="74" type="curve" smooth="yes"/>
      <point x="178" y="86"/>
      <point x="187" y="121"/>
    </contour>
  </outline>
</glyph>
<glyph name="p" format="2">
  <advance width="828"/>
  <unicode hex="0070"/>
  <outline>
    <contour>
      <point x="-106" y="-223" type="line"/>
      <point x="227" y="-223" type="line"/>
      <point x="240" y="-176" type="line"/>
      <point x="212" y="-176" type="line" smooth="yes"/>
      <point x="165" y="-176"/>
      <point x="109" y="-173"/>
      <point x="111" y="-166" type="curve" smooth="yes"/>
      <point x="282" y="395" type="line"/>
      <point x="277" y="402" type="line"/>
      <point x="291" y="565" type="line"/>
      <point x="108" y="565" type="line"/>
      <point x="92" y="512" type="line"/>
      <point x="103" y="510" type="line" smooth="yes"/>
      <point x="166" y="499"/>
      <point x="215" y="481"/>
      <point x="209" y="461" type="curve" smooth="yes"/>
      <point x="38" y="-100" type="line"/>
      <point x="20" y="-162"/>
      <point x="-21" y="-176"/>
      <point x="-88" y="-176" type="curve" smooth="yes"/>
      <point x="-92" y="-176" type="line"/>
    </contour>
    <contour>
      <point x="771" y="382" type="curve" smooth="yes"/>
      <point x="771" y="495"/>
      <point x="704" y="575"/>
      <point x="557" y="575" type="curve" smooth="yes"/>
      <point x="437" y="575"/>
      <point x="337" y="493"/>
      <point x="250" y="383" type="curve"/>
      <point x="258" y="349" type="line"/>
      <point x="354" y="455"/>
      <point x="426" y="516"/>
      <point x="538" y="516" type="curve" smooth="yes"/>
      <point x="631" y="516"/>
      <point x="671" y="468"/>
      <point x="671" y="382" type="curve" smooth="yes"/>
      <point x="671" y="248"/>
      <point x="596" y="47"/>
      <point x="419" y="47" type="curve" smooth="yes"/>
      <point x="303" y="47"/>
      <point x="243" y="109"/>
      <point x="210" y="201" type="curve"/>
      <point x="183" y="173" type="line"/>
      <point x="213" y="67"/>
      <point x="288" y="-13"/>
      <point x="422" y="-13" type="curve" smooth="yes"/>
      <point x="656" y="-13"/>
      <point x="771" y="217"/>
    </contour>
  </outline>
</glyph>
<glyph name="w" format="2">
  <advance width="1045"/>
  <unicode hex="0077"/>
  <anchor x="533" y="565" name="top"/>
  <outline>
    <contour>
      <point x="559" y="565" type="line"/>
      <point x="459" y="387"/>
      <point x="358" y="209"/>
      <point x="258" y="31" type="curve"/>
      <point x="274" y="22" type="line"/>
      <point x="245" y="565" type="line"/>
      <point x="63" y="565" type="line"/>
      <point x="47" y="512" type="line"/>
      <point x="61" y="509" type="line" smooth="yes"/>
      <point x="120" y="499"/>
      <point x="168" y="483"/>
      <point x="169" y="462" type="curve" smooth="yes"/>
      <point x="193" y="-4" type="line"/>
      <point x="296" y="-4" type="line"/>
      <point x="393" y="161"/>
      <point x="491" y="325"/>
      <point x="589" y="490" type="curve"/>
      <point x="566" y="476" type="line"/>
      <point x="595" y="-4" type="line"/>
      <point x="695" y="-4" type="line"/>
      <point x="812" y="182"/>
      <point x="929" y="369"/>
      <point x="1046" y="556" type="curve"/>
      <point x="1046" y="565" type="line"/>
      <point x="953" y="565" type="line"/>
      <point x="855" y="387"/>
      <point x="756" y="209"/>
      <point x="657" y="31" type="curve"/>
      <point x="671" y="20" type="line"/>
      <point x="639" y="565" type="line"/>
    </contour>
  </outline>
</glyph>
<glyph name="x" format="2">
  <advance width="708"/>
  <unicode hex="0078"/>
  <outline>
    <contour>
      <point x="386" y="269" type="line"/>
      <point x="693" y="554" type="line"/>
      <point x="693" y="565" type="line"/>
      <point x="592" y="565" type="line"/>
      <point x="378" y="320" type="line"/>
    </contour>
    <contour>
      <point x="8" y="0" type="line"/>
      <point x="109" y="0" type="line"/>
      <point x="342" y="263" type="line"/>
      <point x="329" y="316" type="line"/>
      <point x="9" y="11" type="line"/>
    </contour>
    <contour>
      <point x="528" y="0" type="curve"/>
      <point x="559" y="0"/>
      <point x="591" y="0"/>
      <point x="622" y="0" type="curve"/>
      <point x="634" y="57" type="line"/>
      <point x="606" y="57"/>
      <point x="578" y="57"/>
      <point x="548" y="57" type="curve"/>
      <point x="519" y="57"/>
      <point x="509" y="63"/>
      <point x="499" y="83" type="curve" smooth="yes"/>
      <point x="290" y="565" type="line"/>
      <point x="118" y="565" type="line"/>
      <point x="101" y="512" type="line"/>
      <point x="118" y="509" type="line" smooth="yes"/>
      <point x="175" y="500"/>
      <point x="231" y="483"/>
      <point x="240" y="462" type="curve" smooth="yes"/>
      <point x="412" y="69" type="line" smooth="yes"/>
      <point x="436" y="16"/>
      <point x="461" y="0"/>
    </contour>
  </outline>
</glyph>
<glyph name="z" format="2">
  <advance width="723"/>
  <unicode hex="007A"/>
  <anchor x="366" y="565" name="top"/>
  <anchor x="390" y="0" name="bottom"/>
  <outline>
    <contour>
      <point x="455" y="-13" type="curve" smooth="yes"/>
      <point x="579" y="-13"/>
      <point x="655" y="49"/>
      <point x="650" y="205" type="curve"/>
      <point x="598" y="215" type="line"/>
      <point x="574" y="94"/>
      <point x="538" y="64"/>
      <point x="449" y="64" type="curve" smooth="yes"/>
      <point x="350" y="64"/>
      <point x="305" y="103"/>
      <point x="225" y="165" type="curve"/>
      <point x="187" y="139" type="line"/>
      <point x="285" y="48"/>
      <point x="352" y="-13"/>
    </contour>
    <contour>
      <point x="74" y="0" type="line"/>
      <point x="667" y="499" type="line"/>
      <point x="683" y="565" type="line"/>
      <point x="163" y="565" type="line"/>
      <point x="111" y="382" type="line"/>
      <point x="178" y="382" type="line"/>
      <point x="214" y="465" type="line" smooth="yes"/>
      <point x="229" y="500"/>
      <point x="274" y="508"/>
      <point x="384" y="508" type="curve" smooth="yes"/>
      <point x="594" y="508" type="line"/>
      <point x="577" y="515" type="line"/>
      <point x="29" y="55" type="line"/>
      <point x="16" y="0" type="line"/>
    </contour>
  </outline>
</glyph>
<glyph name="cent" format="2">
  <advance width="686"/>
  <unicode hex="00A2"/>
  <outline>
    <contour>
      <point x="330" y="-13" type="curve" smooth="yes"/>
      <point x="446" y="-13"/>
      <point x="545" y="39"/>
      <point x="602" y="112" type="curve"/>
      <point x="547" y="145" type="line"/>
      <point x="495" y="89"/>
      <point x="437" y="41"/>
      <point x="336" y="41" type="curve" smooth="yes"/>
      <point x="212" y="41"/>
      <point x="132" y="91"/>
      <point x="132" y="210" type="curve" smooth="yes"/>
      <point x="132" y="367"/>
      <point x="212" y="520"/>
      <point x="423" y="520" type="curve" smooth="yes"/>
      <point x="539" y="520"/>
      <point x="593" y="500"/>
      <point x="633" y="486" type="curve"/>
      <point x="634" y="493"/>
      <point x="617" y="509"/>
      <point x="584" y="522" type="curve"/>
      <point x="540" y="373" type="line"/>
      <point x="632" y="373" type="line"/>
      <point x="679" y="530" type="line"/>
      <point x="650" y="545"/>
      <point x="561" y="575"/>
      <point x="425" y="575" type="curve" smooth="yes"/>
      <point x="173" y="575"/>
      <point x="37" y="401"/>
      <point x="37" y="217" type="curve" smooth="yes"/>
      <point x="37" y="83"/>
      <point x="145" y="-13"/>
    </contour>
    <contour>
      <point x="185" y="-166" type="line"/>
      <point x="268" y="-166" type="line"/>
      <point x="323" y="18" type="line"/>
      <point x="314" y="30" type="line"/>
      <point x="470" y="538" type="line"/>
      <point x="488" y="555" type="line"/>
      <point x="532" y="703" type="line"/>
      <point x="447" y="703" type="line"/>
      <point x="402" y="548" type="line"/>
      <point x="411" y="537" type="line"/>
      <point x="256" y="28" type="line"/>
      <point x="238" y="11" type="line"/>
    </contour>
  </outline>
</glyph>
<glyph name="logicalnot" format="2">
  <advance width="686"/>
  <unicode hex="00AC"/>
  <outline>
    <contour>
      <point x="541" y="392" type="line"/>
      <point x="470" y="158" type="line"/>
      <point x="543" y="158" type="line"/>
      <point x="622" y="413" type="line"/>
      <point x="103" y="413" type="line"/>
      <point x="84" y="355" type="line"/>
      <point x="579" y="355" type="line"/>
    </contour>
  </outline>
</glyph>
<glyph name="ae" format="2">
  <advance width="1137"/>
  <unicode hex="00E6"/>
  <anchor x="577" y="565" name="top"/>
  <outline>
    <contour>
      <point x="784" y="-12" type="curve" smooth="yes"/>
      <point x="904" y="-12"/>
      <point x="1004" y="40"/>
      <point x="1062" y="109" type="curve"/>
      <point x="1014" y="147" type="line"/>
      <point x="962" y="88"/>
      <point x="898" y="46"/>
      <point x="790" y="46" type="curve" smooth="yes"/>
      <point x="676" y="46"/>
      <point x="604" y="91"/>
      <point x="604" y="207" type="curve" smooth="yes"/>
      <point x="604" y="369"/>
      <point x="700" y="517"/>
      <point x="876" y="517" type="curve" smooth="yes"/>
      <point x="961" y="517"/>
      <point x="1007" y="489"/>
      <point x="1007" y="432" type="curve" smooth="yes"/>
      <point x="1007" y="335"/>
      <point x="902" y="280"/>
      <point x="593" y="272" type="curve"/>
      <point x="587" y="225" type="line"/>
      <point x="926" y="230"/>
      <point x="1099" y="303"/>
      <point x="1099" y="435" type="curve" smooth="yes"/>
      <point x="1099" y="515"/>
      <point x="1031" y="575"/>
      <point x="883" y="575" type="curve" smooth="yes"/>
      <point x="756" y="575"/>
      <point x="655" y="507"/>
      <point x="613" y="428" type="curve"/>
      <point x="540" y="381"/>
      <point x="510" y="300"/>
      <point x="510" y="210" type="curve" smooth="yes"/>
      <point x="510" y="71"/>
      <point x="613" y="-12"/>
    </contour>
    <contour>
      <point x="529" y="328" type="line"/>
      <point x="641" y="416" type="line"/>
      <point x="641" y="464" type="line" smooth="yes"/>
      <point x="641" y="545"/>
      <point x="547" y="575"/>
      <point x="420" y="575" type="curve" smooth="yes"/>
      <point x="311" y="575"/>
      <point x="218" y="548"/>
      <point x="182" y="536" type="curve"/>
      <point x="138" y="389" type="line"/>
      <point x="235" y="389" type="line"/>
      <point x="275" y="519" type="line"/>
      <point x="240" y="518"/>
      <point x="204" y="498"/>
      <point x="205" y="486" type="curve"/>
      <point x="238" y="497"/>
      <point x="312" y="518"/>
      <point x="405" y="518" type="curve" smooth="yes"/>
      <point x="518" y="518"/>
      <point x="565" y="493"/>
      <point x="565" y="451" type="curve" smooth="yes"/>
      <point x="565" y="437"/>
      <point x="563" y="422"/>
      <point x="553" y="393" type="curve"/>
    </contour>
    <contour>
      <point x="266" y="-12" type="curve" smooth="yes"/>
      <point x="398" y="-12"/>
      <point x="457" y="42"/>
      <point x="573" y="158" type="curve"/>
      <point x="547" y="192" type="line"/>
      <point x="437" y="86"/>
      <point x="384" y="44"/>
      <point x="275" y="44" type="curve" smooth="yes"/>
      <point x="186" y="44"/>
      <point x="151" y="77"/>
      <point x="151" y="132" type="curve" smooth="yes"/>
      <point x="151" y="215"/>
      <point x="191" y="272"/>
      <point x="560" y="293" type="curve"/>
      <point x="575" y="342" type="line"/>
      <point x="147" y="322"/>
      <point x="54" y="251"/>
      <point x="54" y="130" type="curve" smooth="yes"/>
      <point x="54" y="44"/>
      <point x="125" y="-12"/>
    </contour>
  </outline>
</glyph>
<glyph name="eogonek" format="2">
  <advance width="691"/>
  <unicode hex="0119"/>
  <outline>
    <contour>
      <point x="322" y="-252" type="curve" smooth="yes"/>
      <point x="397" y="-252"/>
      <point x="446" y="-226"/>
      <point x="493" y="-191" type="curve"/>
      <point x="460" y="-156" type="line"/>
      <point x="433" y="-174"/>
      <point x="399" y="-200"/>
      <point x="347" y="-200" type="curve" smooth="yes"/>
      <point x="302" y="-200"/>
      <point x="281" y="-185"/>
      <point x="281" y="-154" type="curve" smooth="yes"/>
      <point x="281" y="-82"/>
      <point x="457" y="-11"/>
      <point x="544" y="53" type="curve" smooth="yes"/>
      <point x="574" y="74"/>
      <point x="594" y="95"/>
      <point x="610" y="116" type="curve"/>
      <point x="557" y="147" type="line"/>
      <point x="509" y="93"/>
      <point x="445" y="46"/>
      <point x="337" y="46" type="curve" smooth="yes"/>
      <point x="222" y="46"/>
      <point x="151" y="91"/>
      <point x="151" y="207" type="curve" smooth="yes"/>
      <point x="151" y="369"/>
      <point x="247" y="517"/>
      <point x="422" y="517" type="curve" smooth="yes"/>
      <point x="508" y="517"/>
      <point x="554" y="489"/>
      <point x="554" y="432" type="curve" smooth="yes"/>
      <point x="554" y="335"/>
      <point x="449" y="280"/>
      <point x="139" y="272" type="curve"/>
      <point x="134" y="225" type="line"/>
      <point x="473" y="230"/>
      <point x="645" y="303"/>
      <point x="645" y="435" type="curve" smooth="yes"/>
      <point x="645" y="515"/>
      <point x="577" y="575"/>
      <point x="430" y="575" type="curve" smooth="yes"/>
      <point x="207" y="575"/>
      <point x="56" y="410"/>
      <point x="56" y="210" type="curve" smooth="yes"/>
      <point x="56" y="71"/>
      <point x="160" y="-12"/>
      <point x="330" y="-12" type="curve" smooth="yes"/>
      <point x="376" y="-12"/>
      <point x="418" y="-5"/>
      <point x="456" y="7" type="curve"/>
      <point x="490" y="46" type="line"/>
      <point x="213" y="-74"/>
      <point x="176" y="-106"/>
      <point x="176" y="-167" type="curve" smooth="yes"/>
      <point x="176" y="-222"/>
      <point x="227" y="-252"/>
    </contour>
  </outline>
</glyph>
<glyph name="itilde" format="2">
  <advance width="422"/>
  <unicode hex="0129"/>
  <outline>
    <contour>
      <point x="340" y="659" type="curve" smooth="yes"/>
      <point x="413" y="659"/>
      <point x="447" y="692"/>
      <point x="494" y="831" type="curve"/>
      <point x="433" y="845" type="line"/>
      <point x="401" y="762"/>
      <point x="389" y="723"/>
      <point x="347" y="723" type="curve" smooth="yes"/>
      <point x="288" y="723"/>
      <point x="304" y="840"/>
      <point x="196" y="840" type="curve" smooth="yes"/>
      <point x="121" y="840"/>
      <point x="87" y="804"/>
      <point x="41" y="671" type="curve"/>
      <point x="102" y="658" type="line"/>
      <point x="134" y="744"/>
      <point x="146" y="778"/>
      <point x="185" y="778" type="curve" smooth="yes"/>
      <point x="242" y="778"/>
      <point x="229" y="659"/>
    </contour>
    <component base="dotlessi"/>
  </outline>
</glyph>
<glyph name="imacron" format="2">
  <advance width="422"/>
  <unicode hex="012B"/>
  <outline>
    <contour>
      <point x="82" y="775" type="line"/>
      <point x="61" y="710" type="line"/>
      <point x="445" y="710" type="line"/>
      <point x="465" y="775" type="line"/>
    </contour>
    <component base="dotlessi"/>
  </outline>
</glyph>
<glyph name="eng" format="2">
  <advance width="789"/>
  <unicode hex="014B"/>
  <outline>
    <contour>
      <point x="454" y="-88" type="line" smooth="yes"/>
      <point x="430" y="-164"/>
      <point x="398" y="-192"/>
      <point x="319" y="-192" type="curve" smooth="yes"/>
      <point x="265" y="-192"/>
      <point x="221" y="-178"/>
      <point x="192" y="-168" type="curve"/>
      <point x="174" y="-226" type="line"/>
      <point x="194" y="-235"/>
      <point x="250" y="-250"/>
      <point x="313" y="-250" type="curve" smooth="yes"/>
      <point x="437" y="-250"/>
      <point x="513" y="-197"/>
      <point x="549" y="-80" type="curve"/>
      <point x="697" y="383" type="line" smooth="yes"/>
      <point x="710" y="425"/>
      <point x="721" y="461"/>
      <point x="721" y="493" type="curve" smooth="yes"/>
      <point x="721" y="541"/>
      <point x="684" y="575"/>
      <point x="595" y="575" type="curve" smooth="yes"/>
      <point x="453" y="575"/>
      <point x="353" y="489"/>
      <point x="244" y="371" type="curve"/>
      <point x="253" y="339" type="line"/>
      <point x="371" y="448"/>
      <point x="459" y="512"/>
      <point x="551" y="512" type="curve" smooth="yes"/>
      <point x="603" y="512"/>
      <point x="623" y="495"/>
      <point x="623" y="466" type="curve" smooth="yes"/>
      <point x="623" y="445"/>
      <point x="617" y="425"/>
      <point x="605" y="386" type="curve" smooth="yes"/>
    </contour>
    <contour>
      <point x="161" y="0" type="line"/>
      <point x="278" y="384" type="line"/>
      <point x="273" y="393" type="line"/>
      <point x="291" y="565" type="line"/>
      <point x="106" y="565" type="line"/>
      <point x="91" y="512" type="line"/>
      <point x="102" y="510" type="line" smooth="yes"/>
      <point x="164" y="499"/>
      <point x="213" y="481"/>
      <point x="208" y="461" type="curve" smooth="yes"/>
      <point x="68" y="0" type="line"/>
    </contour>
  </outline>
</glyph>
<glyph name="ohorn" format="2">
  <advance width="841"/>
  <unicode hex="01A1"/>
  <anchor x="427" y="565" name="top"/>
  <outline>
    <contour>
      <point x="338" y="-13" type="curve" smooth="yes"/>
      <point x="597" y="-13"/>
      <point x="716" y="189"/>
      <point x="716" y="339" type="curve" smooth="yes"/>
      <point x="716" y="430"/>
      <point x="654" y="495"/>
      <point x="563" y="529" type="curve"/>
      <point x="592" y="497" type="line"/>
      <point x="608" y="527" type="line"/>
      <point x="543" y="539" type="line"/>
      <point x="593" y="518"/>
      <point x="640" y="499"/>
      <point x="698" y="499" type="curve"/>
      <point x="779" y="499"/>
      <point x="871" y="530"/>
      <point x="924" y="737" type="curve"/>
      <point x="831" y="737" type="line"/>
      <point x="791" y="596"/>
      <point x="752" y="551"/>
      <point x="666" y="551" type="curve" smooth="yes"/>
      <point x="590" y="551"/>
      <point x="536" y="575"/>
      <point x="437" y="575" type="curve" smooth="yes"/>
      <point x="182" y="575"/>
      <point x="56" y="379"/>
      <point x="56" y="205" type="curve" smooth="yes"/>
      <point x="56" y="72"/>
      <point x="159" y="-13"/>
    </contour>
    <contour>
      <point x="348" y="45" type="curve" smooth="yes"/>
      <point x="212" y="45"/>
      <point x="157" y="97"/>
      <point x="157" y="199" type="curve" smooth="yes"/>
      <point x="157" y="257"/>
      <point x="169" y="322"/>
      <point x="197" y="377" type="curve" smooth="yes"/>
      <point x="238" y="457"/>
      <point x="310" y="517"/>
      <point x="427" y="517" type="curve" smooth="yes"/>
      <point x="563" y="517"/>
      <point x="618" y="465"/>
      <point x="618" y="363" type="curve" smooth="yes"/>
      <point x="618" y="305"/>
      <point x="606" y="240"/>
      <point x="577" y="185" type="curve" smooth="yes"/>
      <point x="537" y="105"/>
      <point x="465" y="45"/>
    </contour>
  </outline>
</glyph>
<glyph name="uhorn" format="2">
  <advance width="919"/>
  <unicode hex="01B0"/>
  <anchor x="447" y="565" name="top"/>
  <outline>
    <contour>
      <point x="111" y="565" type="line"/>
      <point x="96" y="512" type="line"/>
      <point x="108" y="510" type="line" smooth="yes"/>
      <point x="170" y="500"/>
      <point x="215" y="486"/>
      <point x="210" y="467" type="curve" smooth="yes"/>
      <point x="122" y="180" type="line" smooth="yes"/>
      <point x="109" y="138"/>
      <point x="98" y="105"/>
      <point x="98" y="73" type="curve" smooth="yes"/>
      <point x="98" y="25"/>
      <point x="135" y="-10"/>
      <point x="222" y="-10" type="curve" smooth="yes"/>
      <point x="359" y="-10"/>
      <point x="463" y="75"/>
      <point x="565" y="194" type="curve"/>
      <point x="556" y="226" type="line"/>
      <point x="442" y="116"/>
      <point x="362" y="53"/>
      <point x="268" y="53" type="curve" smooth="yes"/>
      <point x="216" y="53"/>
      <point x="196" y="71"/>
      <point x="196" y="100" type="curve" smooth="yes"/>
      <point x="196" y="120"/>
      <point x="202" y="140"/>
      <point x="214" y="179" type="curve" smooth="yes"/>
      <point x="332" y="565" type="line"/>
    </contour>
    <contour>
      <point x="721" y="538" type="line"/>
      <point x="668" y="512" type="line"/>
      <point x="830" y="517"/>
      <point x="942" y="533"/>
      <point x="1005" y="737" type="curve"/>
      <point x="912" y="737" type="line"/>
      <point x="861" y="593"/>
      <point x="821" y="565"/>
      <point x="671" y="565" type="curve"/>
      <point x="637" y="565" type="line"/>
      <point x="516" y="169" type="line"/>
      <point x="522" y="174" type="line"/>
      <point x="513" y="109"/>
      <point x="510" y="64"/>
      <point x="510" y="53" type="curve" smooth="yes"/>
      <point x="510" y="17"/>
      <point x="539" y="0"/>
      <point x="591" y="0" type="curve" smooth="yes"/>
      <point x="634" y="0"/>
      <point x="677" y="0"/>
      <point x="720" y="0" type="curve"/>
      <point x="733" y="57" type="line"/>
      <point x="691" y="57"/>
      <point x="649" y="57"/>
      <point x="608" y="57" type="curve" smooth="yes"/>
      <point x="590" y="57"/>
      <point x="583" y="62"/>
      <point x="583" y="73" type="curve" smooth="yes"/>
      <point x="583" y="86"/>
      <point x="598" y="131"/>
      <point x="634" y="248" type="curve" smooth="yes"/>
    </contour>
  </outline>
</glyph>
<glyph name="tilde" format="2">
  <advance width="613"/>
  <unicode hex="02DC"/>
  <anchor x="306" y="516" name="_top"/>
  <outline>
    <contour>
      <point x="387" y="659" type="curve" smooth="yes"/>
      <point x="462" y="659"/>
      <point x="497" y="692"/>
      <point x="546" y="831" type="curve"/>
      <point x="486" y="845" type="line"/>
      <point x="451" y="762"/>
      <point x="439" y="723"/>
      <point x="394" y="723" type="curve" smooth="yes"/>
      <point x="332" y="723"/>
      <point x="341" y="840"/>
      <point x="224" y="840" type="curve" smooth="yes"/>
      <point x="148" y="840"/>
      <point x="111" y="804"/>
      <point x="65" y="671" type="curve"/>
      <point x="126" y="658" type="line"/>
      <point x="158" y="744"/>
      <point x="172" y="778"/>
      <point x="211" y="778" type="curve" smooth="yes"/>
      <point x="272" y="778"/>
      <point x="266" y="659"/>
    </contour>
  </outline>
</glyph>
<glyph name="hungarumlaut" format="2">
  <advance width="613"/>
  <unicode hex="02DD"/>
  <anchor x="309" y="525" name="_top"/>
  <outline>
    <contour>
      <point x="120" y="814" type="curve" smooth="yes"/>
      <point x="63" y="685" type="line"/>
      <point x="56" y="661" type="line"/>
      <point x="90" y="661" type="line"/>
      <point x="196" y="753" type="line" smooth="yes"/>
      <point x="232" y="784"/>
      <point x="250" y="799"/>
      <point x="250" y="826" type="curve" smooth="yes"/>
      <point x="250" y="850"/>
      <point x="229" y="869"/>
      <point x="192" y="869" type="curve" smooth="yes"/>
      <point x="152" y="869"/>
      <point x="135" y="848"/>
    </contour>
    <contour>
      <point x="360" y="814" type="curve" smooth="yes"/>
      <point x="304" y="685" type="line"/>
      <point x="297" y="661" type="line"/>
      <point x="331" y="661" type="line"/>
      <point x="437" y="753" type="line" smooth="yes"/>
      <point x="472" y="784"/>
      <point x="490" y="799"/>
      <point x="490" y="826" type="curve" smooth="yes"/>
      <point x="490" y="850"/>
      <point x="469" y="869"/>
      <point x="432" y="869" type="curve" smooth="yes"/>
      <point x="392" y="869"/>
      <point x="376" y="848"/>
    </contour>
  </outline>
</glyph>
<glyph name="Omega" format="2">
  <advance width="1069"/>
  <unicode hex="03A9"/>
  <outline>
    <contour>
      <point x="593" y="678" type="curve" smooth="yes"/>
      <point x="376" y="678"/>
      <point x="252" y="582"/>
      <point x="252" y="412" type="curve" smooth="yes"/>
      <point x="252" y="288"/>
      <point x="325" y="202"/>
      <point x="396" y="89" type="curve"/>
      <point x="369" y="0" type="line"/>
      <point x="-38" y="0" type="line"/>
      <point x="29" y="217" type="line"/>
      <point x="98" y="217" type="line"/>
      <point x="85" y="112" type="line" smooth="yes"/>
      <point x="80" y="76"/>
      <point x="117" y="63"/>
      <point x="223" y="63" type="curve" smooth="yes"/>
      <point x="365" y="63" type="line"/>
      <point x="352" y="47" type="line"/>
      <point x="233" y="208"/>
      <point x="147" y="313"/>
      <point x="147" y="424" type="curve" smooth="yes"/>
      <point x="147" y="615"/>
      <point x="337" y="735"/>
      <point x="595" y="735" type="curve" smooth="yes"/>
      <point x="837" y="735"/>
      <point x="975" y="640"/>
      <point x="975" y="491" type="curve" smooth="yes"/>
      <point x="975" y="353"/>
      <point x="856" y="245"/>
      <point x="554" y="45" type="curve"/>
      <point x="548" y="63" type="line"/>
      <point x="702" y="63" type="line" smooth="yes"/>
      <point x="808" y="63"/>
      <point x="853" y="76"/>
      <point x="871" y="112" type="curve" smooth="yes"/>
      <point x="921" y="217" type="line"/>
      <point x="991" y="217" type="line"/>
      <point x="925" y="0" type="line"/>
      <point x="505" y="0" type="line"/>
      <point x="533" y="89" type="line"/>
      <point x="722" y="223"/>
      <point x="870" y="342"/>
      <point x="870" y="490" type="curve" smooth="yes"/>
      <point x="870" y="614"/>
      <point x="774" y="678"/>
    </contour>
  </outline>
</glyph>
<glyph name="pi" format="2">
  <advance width="940"/>
  <unicode hex="03C0"/>
  <outline>
    <contour>
      <point x="281" y="0" type="line"/>
      <point x="428" y="478" type="line"/>
      <point x="361" y="478" type="line"/>
      <point x="269" y="213"/>
      <point x="237" y="188"/>
      <point x="179" y="0" type="curve"/>
    </contour>
    <contour>
      <point x="913" y="442" type="line"/>
      <point x="934" y="512" type="line"/>
      <point x="355" y="512" type="line" smooth="yes"/>
      <point x="187" y="512"/>
      <point x="95" y="446"/>
      <point x="43" y="318" type="curve"/>
      <point x="110" y="303" type="line"/>
      <point x="156" y="400"/>
      <point x="212" y="442"/>
      <point x="324" y="442" type="curve" smooth="yes"/>
    </contour>
    <contour>
      <point x="731" y="478" type="line"/>
      <point x="664" y="478" type="line"/>
      <point x="556" y="180"/>
      <point x="515" y="139"/>
      <point x="515" y="79" type="curve" smooth="yes"/>
      <point x="515" y="19"/>
      <point x="563" y="-10"/>
      <point x="647" y="-10" type="curve" smooth="yes"/>
      <point x="738" y="-10"/>
      <point x="786" y="24"/>
      <point x="827" y="102" type="curve"/>
      <point x="769" y="127" type="line"/>
      <point x="743" y="79"/>
      <point x="717" y="49"/>
      <point x="668" y="49" type="curve" smooth="yes"/>
      <point x="630" y="49"/>
      <point x="616" y="65"/>
      <point x="616" y="89" type="curve"/>
      <point x="616" y="104"/>
      <point x="621" y="122"/>
      <point x="627" y="141" type="curve" smooth="yes"/>
    </contour>
  </outline>
</glyph>
<glyph name="quoteright" format="2">
  <advance width="366"/>
  <unicode hex="2019"/>
  <outline>
    <contour>
      <point x="134" y="471" type="line"/>
      <point x="303" y="501"/>
      <point x="363" y="612"/>
      <point x="363" y="705" type="curve" smooth="yes"/>
      <point x="363" y="752"/>
      <point x="333" y="780"/>
      <point x="270" y="780" type="curve" smooth="yes"/>
      <point x="210" y="780"/>
      <point x="182" y="753"/>
      <point x="182" y="719" type="curve" smooth="yes"/>
      <point x="182" y="685"/>
      <point x="213" y="666"/>
      <point x="260" y="666" type="curve" smooth="yes"/>
      <point x="278" y="666"/>
      <point x="296" y="669"/>
      <point x="313" y="677" type="curve"/>
      <point x="292" y="682" type="line"/>
      <point x="279" y="585"/>
      <point x="217" y="542"/>
      <point x="88" y="521" type="curve"/>
    </contour>
  </outline>
</glyph>
<glyph name="daggerdbl" format="2">
  <advance width="666"/>
  <unicode hex="2021"/>
  <outline>
    <contour>
      <point x="-2" y="145" type="line"/>
      <point x="35" y="145" type="line"/>
      <point x="271" y="177" type="line"/>
      <point x="307" y="177" type="line"/>
      <point x="522" y="145" type="line"/>
      <point x="558" y="145" type="line"/>
      <point x="591" y="250" type="line"/>
      <point x="554" y="250" type="line"/>
      <point x="315" y="204" type="line"/>
      <point x="279" y="204" type="line"/>
      <point x="67" y="250" type="line"/>
      <point x="31" y="250" type="line"/>
    </contour>
    <contour>
      <point x="254" y="328" type="line"/>
      <point x="269" y="299"/>
      <point x="286" y="272"/>
      <point x="262" y="190" type="curve" smooth="yes"/>
      <point x="234" y="101"/>
      <point x="190" y="75"/>
      <point x="175" y="26" type="curve" smooth="yes"/>
      <point x="161" y="-21" type="line"/>
      <point x="294" y="-21" type="line"/>
      <point x="309" y="26" type="line" smooth="yes"/>
      <point x="324" y="75"/>
      <point x="296" y="101"/>
      <point x="323" y="190" type="curve" smooth="yes"/>
      <point x="347" y="273"/>
      <point x="383" y="298"/>
      <point x="414" y="326" type="curve"/>
      <point x="425" y="361" type="line"/>
      <point x="411" y="390"/>
      <point x="392" y="417"/>
      <point x="417" y="499" type="curve" smooth="yes"/>
      <point x="444" y="588"/>
      <point x="488" y="614"/>
      <point x="504" y="663" type="curve" smooth="yes"/>
      <point x="518" y="710" type="line"/>
      <point x="384" y="710" type="line"/>
      <point x="370" y="664" type="line" smooth="yes"/>
      <point x="354" y="615"/>
      <point x="383" y="589"/>
      <point x="356" y="499" type="curve" smooth="yes"/>
      <point x="331" y="417"/>
      <point x="296" y="392"/>
      <point x="265" y="363" type="curve"/>
    </contour>
    <contour>
      <point x="88" y="439" type="line"/>
      <point x="125" y="439" type="line"/>
      <point x="364" y="485" type="line"/>
      <point x="400" y="485" type="line"/>
      <point x="611" y="439" type="line"/>
      <point x="648" y="439" type="line"/>
      <point x="680" y="545" type="line"/>
      <point x="644" y="545" type="line"/>
      <point x="408" y="512" type="line"/>
      <point x="373" y="512" type="line"/>
      <point x="157" y="545" type="line"/>
      <point x="120" y="545" type="line"/>
    </contour>
  </outline>
</glyph>
<glyph name="won" format="2">
  <advance width="686"/>
  <unicode hex="20A9"/>
  <outline>
    <contour>
      <point x="65" y="0" type="line"/>
      <point x="137" y="0" type="line"/>
      <point x="474" y="703" type="line"/>
      <point x="461" y="707" type="line"/>
      <point x="369" y="0" type="line"/>
      <point x="440" y="0" type="line"/>
      <point x="689" y="617" type="line" smooth="yes"/>
      <point x="703" y="651"/>
      <point x="729" y="660"/>
      <point x="756" y="660" type="curve" smooth="yes"/>
      <point x="766" y="660" type="line"/>
      <point x="781" y="710" type="line"/>
      <point x="625" y="710" type="line"/>
      <point x="609" y="660" type="line"/>
      <point x="614" y="660" type="line" smooth="yes"/>
      <point x="643" y="660"/>
      <point x="650" y="653"/>
      <point x="646" y="642" type="curve"/>
      <point x="395" y="8" type="line"/>
      <point x="421" y="10" type="line"/>
      <point x="513" y="710" type="line"/>
      <point x="428" y="710" type="line"/>
      <point x="94" y="12" type="line"/>
      <point x="122" y="15" type="line"/>
      <point x="246" y="650" type="line"/>
      <point x="249" y="657"/>
      <point x="262" y="660"/>
      <point x="287" y="660" type="curve" smooth="yes"/>
      <point x="293" y="660" type="line"/>
      <point x="308" y="710" type="line"/>
      <point x="144" y="710" type="line"/>
      <point x="129" y="660" type="line"/>
      <point x="139" y="660" type="line" smooth="yes"/>
      <point x="167" y="660"/>
      <point x="188" y="657"/>
      <point x="181" y="623" type="curve" smooth="yes"/>
    </contour>
    <contour>
      <point x="54" y="508" type="line"/>
      <point x="35" y="446" type="line"/>
      <point x="193" y="446" type="line"/>
      <point x="190" y="457" type="line"/>
      <point x="340" y="488" type="line"/>
      <point x="342" y="508" type="line"/>
    </contour>
    <contour>
      <point x="459" y="488" type="line"/>
      <point x="601" y="457" type="line"/>
      <point x="589" y="446" type="line"/>
      <point x="727" y="446" type="line"/>
      <point x="746" y="508" type="line"/>
      <point x="469" y="508" type="line"/>
    </contour>
    <contour>
      <point x="231" y="243" type="line"/>
      <point x="425" y="243" type="line"/>
      <point x="424" y="262" type="line"/>
      <point x="341" y="293" type="line"/>
      <point x="249" y="262" type="line"/>
    </contour>
    <contour>
      <point x="134" y="295" type="line"/>
      <point x="-11" y="295" type="line"/>
      <point x="-30" y="233" type="line"/>
      <point x="128" y="233" type="line"/>
    </contour>
    <contour>
      <point x="526" y="233" type="line"/>
      <point x="662" y="233" type="line"/>
      <point x="681" y="295" type="line"/>
      <point x="550" y="295" type="line"/>
    </contour>
  </outline>
</glyph>
<glyph name="dong" format="2">
  <advance width="686"/>
  <unicode hex="20AB"/>
  <outline>
    <contour>
      <point x="202" y="-12" type="curve" smooth="yes"/>
      <point x="308" y="-12"/>
      <point x="393" y="70"/>
      <point x="467" y="180" type="curve"/>
      <point x="458" y="213" type="line"/>
      <point x="377" y="108"/>
      <point x="315" y="47"/>
      <point x="227" y="47" type="curve" smooth="yes"/>
      <point x="149" y="47"/>
      <point x="123" y="90"/>
      <point x="123" y="173" type="curve" smooth="yes"/>
      <point x="123" y="244"/>
      <point x="147" y="332"/>
      <point x="190" y="402" type="curve" smooth="yes"/>
      <point x="231" y="467"/>
      <point x="289" y="516"/>
      <point x="359" y="516" type="curve" smooth="yes"/>
      <point x="457" y="516"/>
      <point x="481" y="454"/>
      <point x="507" y="359" type="curve"/>
      <point x="534" y="386" type="line"/>
      <point x="509" y="495"/>
      <point x="474" y="576"/>
      <point x="357" y="576" type="curve" smooth="yes"/>
      <point x="151" y="576"/>
      <point x="30" y="342"/>
      <point x="30" y="173" type="curve" smooth="yes"/>
      <point x="30" y="64"/>
      <point x="75" y="-12"/>
    </contour>
    <contour>
      <point x="506" y="0" type="curve" smooth="yes"/>
      <point x="537" y="0"/>
      <point x="568" y="0"/>
      <point x="600" y="0" type="curve"/>
      <point x="612" y="57" type="line"/>
      <point x="581" y="57"/>
      <point x="549" y="57"/>
      <point x="519" y="57" type="curve" smooth="yes"/>
      <point x="501" y="57"/>
      <point x="494" y="62"/>
      <point x="494" y="73" type="curve" smooth="yes"/>
      <point x="494" y="86"/>
      <point x="509" y="131"/>
      <point x="544" y="248" type="curve" smooth="yes"/>
      <point x="707" y="780" type="line"/>
      <point x="620" y="780" type="line"/>
      <point x="435" y="176" type="line"/>
      <point x="435" y="164" type="line"/>
      <point x="429" y="112"/>
      <point x="425" y="64"/>
      <point x="425" y="53" type="curve" smooth="yes"/>
      <point x="425" y="17"/>
      <point x="454" y="0"/>
    </contour>
    <contour>
      <point x="1" y="-171" type="line"/>
      <point x="552" y="-171" type="line"/>
      <point x="569" y="-115" type="line"/>
      <point x="17" y="-115" type="line"/>
    </contour>
    <contour>
      <point x="320" y="654" type="line"/>
      <point x="756" y="654" type="line"/>
      <point x="772" y="705" type="line"/>
      <point x="336" y="705" type="line"/>
    </contour>
  </outline>
</glyph>
<glyph name="Euro" format="2">
  <advance width="686"/>
  <unicode hex="20AC"/>
  <outline>
    <contour>
      <point x="533" y="735" type="curve" smooth="yes"/>
      <point x="235" y="735"/>
      <point x="107" y="441"/>
      <point x="107" y="193" type="curve" smooth="yes"/>
      <point x="107" y="54"/>
      <point x="180" y="-25"/>
      <point x="345" y="-25" type="curve" smooth="yes"/>
      <point x="479" y="-25"/>
      <point x="565" y="46"/>
      <point x="628" y="160" type="curve"/>
      <point x="568" y="185" type="line"/>
      <point x="520" y="101"/>
      <point x="461" y="32"/>
      <point x="349" y="32" type="curve" smooth="yes"/>
      <point x="240" y="32"/>
      <point x="200" y="81"/>
      <point x="200" y="191" type="curve" smooth="yes"/>
      <point x="200" y="246"/>
      <point x="210" y="315"/>
      <point x="237" y="399" type="curve" smooth="yes"/>
      <point x="301" y="598"/>
      <point x="390" y="678"/>
      <point x="532" y="678" type="curve" smooth="yes"/>
      <point x="598" y="678"/>
      <point x="638" y="664"/>
      <point x="675" y="644" type="curve"/>
      <point x="676" y="648"/>
      <point x="659" y="678"/>
      <point x="626" y="678" type="curve"/>
      <point x="591" y="563" type="line"/>
      <point x="687" y="563" type="line"/>
      <point x="730" y="699" type="line"/>
      <point x="705" y="710"/>
      <point x="639" y="735"/>
    </contour>
    <contour>
      <point x="60" y="459" type="line"/>
      <point x="43" y="404" type="line"/>
      <point x="519" y="404" type="line"/>
      <point x="536" y="459" type="line"/>
    </contour>
    <contour>
      <point x="7" y="286" type="line"/>
      <point x="-10" y="231" type="line"/>
      <point x="429" y="231" type="line"/>
      <point x="446" y="286" type="line"/>
    </contour>
  </outline>
</glyph>
<glyph name="kip" format="2">
  <advance width="686"/>
  <unicode hex="20AD"/>
  <outline>
    <contour>
      <point x="58" y="401" type="line"/>
      <point x="41" y="347" type="line"/>
      <point x="634" y="347" type="line"/>
      <point x="650" y="401" type="line"/>
    </contour>
    <contour>
      <point x="-59" y="0" type="line"/>
      <point x="182" y="0" type="line"/>
      <point x="200" y="56" type="line"/>
      <point x="189" y="56" type="line" smooth="yes"/>
      <point x="152" y="56"/>
      <point x="121" y="59"/>
      <point x="123" y="66" type="curve" smooth="yes"/>
      <point x="300" y="644" type="line" smooth="yes"/>
      <point x="302" y="651"/>
      <point x="334" y="654"/>
      <point x="371" y="654" type="curve" smooth="yes"/>
      <point x="382" y="654" type="line"/>
      <point x="400" y="710" type="line"/>
      <point x="159" y="710" type="line"/>
      <point x="141" y="654" type="line"/>
      <point x="155" y="654" type="line" smooth="yes"/>
      <point x="192" y="654"/>
      <point x="218" y="647"/>
      <point x="209" y="618" type="curve" smooth="yes"/>
      <point x="49" y="92" type="line" smooth="yes"/>
      <point x="41" y="63"/>
      <point x="10" y="56"/>
      <point x="-28" y="56" type="curve" smooth="yes"/>
      <point x="-42" y="56" type="line"/>
    </contour>
    <contour>
      <point x="339" y="0" type="line"/>
      <point x="581" y="0" type="line"/>
      <point x="599" y="56" type="line"/>
      <point x="583" y="56" type="line" smooth="yes"/>
      <point x="550" y="56"/>
      <point x="534" y="61"/>
      <point x="518" y="89" type="curve" smooth="yes"/>
      <point x="347" y="401" type="line"/>
      <point x="337" y="362" type="line"/>
      <point x="645" y="625" type="line" smooth="yes"/>
      <point x="672" y="649"/>
      <point x="692" y="654"/>
      <point x="722" y="654" type="curve" smooth="yes"/>
      <point x="739" y="654" type="line"/>
      <point x="756" y="710" type="line"/>
      <point x="530" y="710" type="line"/>
      <point x="513" y="654" type="line"/>
      <point x="523" y="654" type="line" smooth="yes"/>
      <point x="556" y="654"/>
      <point x="589" y="651"/>
      <point x="588" y="644" type="curve"/>
      <point x="269" y="370" type="line"/>
      <point x="280" y="354" type="line"/>
      <point x="437" y="66" type="line"/>
      <point x="435" y="59"/>
      <point x="401" y="56"/>
      <point x="367" y="56" type="curve" smooth="yes"/>
      <point x="356" y="56" type="line"/>
    </contour>
  </outline>
</glyph>
<glyph name="numero" format="2">
  <advance width="1651"/>
  <unicode hex="2116"/>
  <outline>
    <contour>
      <point x="1085" y="210" type="line"/>
      <point x="1577" y="210" type="line"/>
      <point x="1557" y="145" type="line"/>
      <point x="1065" y="145" type="line"/>
    </contour>
    <component base="N"/>
    <component base="ordmasculine" xOffset="988"/>
  </outline>
</glyph>
<glyph name="lozenge" format="2">
  <advance width="862"/>
  <unicode hex="25CA"/>
  <outline>
    <contour>
      <point x="352" y="21" type="line"/>
      <point x="126" y="372" type="line"/>
      <point x="120" y="334" type="line"/>
      <point x="565" y="688" type="line"/>
      <point x="513" y="689" type="line"/>
      <point x="742" y="335" type="line"/>
      <point x="740" y="373" type="line"/>
      <point x="299" y="22" type="line"/>
    </contour>
    <contour>
      <point x="279" y="0" type="line"/>
      <point x="367" y="0" type="line"/>
      <point x="782" y="327" type="line"/>
      <point x="799" y="383" type="line"/>
      <point x="585" y="710" type="line"/>
      <point x="498" y="710" type="line"/>
      <point x="83" y="383" type="line"/>
      <point x="67" y="327" type="line"/>
    </contour>
  </outline>
</glyph>
<glyph name="eight.den" format="2">
  <advance width="597"/>
  <unicode hex="E40A"/>
  <outline>
    <contour>
      <point x="273" y="-6" type="curve" smooth="yes"/>
      <point x="412" y="-6"/>
      <point x="490" y="38"/>
      <point x="490" y="118" type="curve" smooth="yes"/>
      <point x="490" y="196"/>
      <point x="382" y="226"/>
      <point x="263" y="226" type="curve"/>
      <point x="147" y="226"/>
      <point x="55" y="198"/>
      <point x="55" y="111" type="curve" smooth="yes"/>
      <point x="55" y="39"/>
      <point x="140" y="-6"/>
    </contour>
    <contour>
      <point x="341" y="217" type="curve"/>
      <point x="434" y="217"/>
      <point x="510" y="247"/>
      <point x="510" y="321" type="curve"/>
      <point x="510" y="383"/>
      <point x="426" y="421"/>
      <point x="325" y="421" type="curve" smooth="yes"/>
      <point x="197" y="421"/>
      <point x="135" y="377"/>
      <point x="135" y="318" type="curve"/>
      <point x="135" y="250"/>
      <point x="219" y="217"/>
    </contour>
    <contour>
      <point x="323" y="239" type="curve" smooth="yes"/>
      <point x="266" y="239"/>
      <point x="222" y="260"/>
      <point x="222" y="301" type="curve" smooth="yes"/>
      <point x="222" y="308"/>
      <point x="222" y="313"/>
      <point x="225" y="324" type="curve" smooth="yes"/>
      <point x="234" y="364"/>
      <point x="270" y="377"/>
      <point x="325" y="377" type="curve" smooth="yes"/>
      <point x="385" y="377"/>
      <point x="424" y="358"/>
      <point x="424" y="321" type="curve" smooth="yes"/>
      <point x="424" y="315"/>
      <point x="424" y="308"/>
      <point x="421" y="298" type="curve" smooth="yes"/>
      <point x="412" y="255"/>
      <point x="382" y="239"/>
    </contour>
    <contour>
      <point x="274" y="199" type="curve" smooth="yes"/>
      <point x="346" y="199"/>
      <point x="391" y="178"/>
      <point x="391" y="137" type="curve" smooth="yes"/>
      <point x="391" y="128"/>
      <point x="390" y="119"/>
      <point x="388" y="108" type="curve" smooth="yes"/>
      <point x="376" y="57"/>
      <point x="341" y="38"/>
      <point x="275" y="38" type="curve" smooth="yes"/>
      <point x="198" y="38"/>
      <point x="153" y="64"/>
      <point x="153" y="108" type="curve" smooth="yes"/>
      <point x="153" y="120"/>
      <point x="155" y="129"/>
      <point x="157" y="138" type="curve" smooth="yes"/>
      <point x="170" y="185"/>
      <point x="211" y="199"/>
    </contour>
  </outline>
</glyph>
<glyph name="breve_grave.uc" format="2">
  <advance width="647"/>
  <anchor x="302" y="744" name="_top"/>
  <outline>
    <contour>
      <point x="288" y="1096" type="curve" smooth="yes"/>
      <point x="394" y="997" type="line"/>
      <point x="392" y="972" type="line"/>
      <point x="352" y="972" type="line"/>
      <point x="201" y="1036" type="line" smooth="yes"/>
      <point x="165" y="1052"/>
      <point x="136" y="1072"/>
      <point x="136" y="1097" type="curve" smooth="yes"/>
      <point x="136" y="1121"/>
      <point x="157" y="1146"/>
      <point x="199" y="1146" type="curve" smooth="yes"/>
      <point x="238" y="1146"/>
      <point x="256" y="1125"/>
    </contour>
    <component base="breve.uc"/>
  </outline>
</glyph>
<glyph name="cent.proportional" format="2">
  <advance width="756"/>
  <outline>
    <contour>
      <point x="483" y="703" type="line"/>
      <point x="439" y="550" type="line"/>
      <point x="448" y="538" type="line"/>
      <point x="292" y="25" type="line"/>
      <point x="275" y="8" type="line"/>
      <point x="223" y="-166" type="line"/>
      <point x="306" y="-166" type="line"/>
      <point x="360" y="15" type="line"/>
      <point x="351" y="28" type="line"/>
      <point x="506" y="540" type="line"/>
      <point x="525" y="557" type="line"/>
      <point x="568" y="703" type="line"/>
    </contour>
    <contour>
      <point x="461" y="575" type="curve" smooth="yes"/>
      <point x="205" y="575"/>
      <point x="69" y="401"/>
      <point x="69" y="217" type="curve" smooth="yes"/>
      <point x="69" y="83"/>
      <point x="177" y="-13"/>
      <point x="365" y="-13" type="curve" smooth="yes"/>
      <point x="486" y="-13"/>
      <point x="584" y="39"/>
      <point x="641" y="112" type="curve"/>
      <point x="586" y="145" type="line"/>
      <point x="534" y="89"/>
      <point x="477" y="41"/>
      <point x="371" y="41" type="curve" smooth="yes"/>
      <point x="244" y="41"/>
      <point x="165" y="91"/>
      <point x="165" y="210" type="curve" smooth="yes"/>
      <point x="165" y="367"/>
      <point x="244" y="520"/>
      <point x="458" y="520" type="curve" smooth="yes"/>
      <point x="579" y="520"/>
      <point x="631" y="500"/>
      <point x="671" y="486" type="curve"/>
      <point x="672" y="493"/>
      <point x="656" y="509"/>
      <point x="623" y="522" type="curve"/>
      <point x="578" y="373" type="line"/>
      <point x="671" y="373" type="line"/>
      <point x="719" y="530" type="line"/>
      <point x="690" y="545"/>
      <point x="601" y="575"/>
    </contour>
  </outline>
</glyph>
<glyph name="circumflex_acute.uc" format="2">
  <advance width="660"/>
  <anchor x="335" y="749" name="_top"/>
  <outline>
    <contour>
      <point x="633" y="1054" type="curve" smooth="yes"/>
      <point x="506" y="946" type="line"/>
      <point x="499" y="921" type="line"/>
      <point x="540" y="921" type="line"/>
      <point x="693" y="985" type="line" smooth="yes"/>
      <point x="742" y="1006"/>
      <point x="776" y="1022"/>
      <point x="776" y="1052" type="curve" smooth="yes"/>
      <point x="776" y="1076"/>
      <point x="755" y="1095"/>
      <point x="720" y="1095" type="curve" smooth="yes"/>
      <point x="686" y="1095"/>
      <point x="663" y="1080"/>
    </contour>
    <component base="circumflex.uc"/>
  </outline>
</glyph>
<glyph name="circumflex_tilde" format="2">
  <advance width="612"/>
  <anchor x="305" y="551" name="_top"/>
  <outline>
    <contour>
      <point x="373" y="817" type="line"/>
      <point x="491" y="676" type="line"/>
      <point x="485" y="656" type="line"/>
      <point x="444" y="656" type="line"/>
      <point x="274" y="776" type="line"/>
      <point x="344" y="762" type="line"/>
      <point x="132" y="656" type="line"/>
      <point x="86" y="656" type="line"/>
      <point x="92" y="676" type="line"/>
      <point x="294" y="817" type="line"/>
    </contour>
    <contour>
      <point x="285" y="1023" type="curve" smooth="yes"/>
      <point x="220" y="1023"/>
      <point x="177" y="994"/>
      <point x="134" y="893" type="curve"/>
      <point x="189" y="877" type="line"/>
      <point x="221" y="940"/>
      <point x="236" y="966"/>
      <point x="273" y="966" type="curve" smooth="yes"/>
      <point x="336" y="966"/>
      <point x="323" y="878"/>
      <point x="431" y="878" type="curve" smooth="yes"/>
      <point x="494" y="878"/>
      <point x="529" y="903"/>
      <point x="574" y="1012" type="curve"/>
      <point x="518" y="1028" type="line"/>
      <point x="488" y="962"/>
      <point x="477" y="938"/>
      <point x="441" y="938" type="curve" smooth="yes"/>
      <point x="381" y="938"/>
      <point x="393" y="1023"/>
    </contour>
  </outline>
</glyph>
<glyph name="circumflex_tilde.uc" format="2">
  <advance width="613"/>
  <anchor x="305" y="694" name="_top"/>
  <outline>
    <contour>
      <point x="446" y="996" type="curve" smooth="yes"/>
      <point x="509" y="996"/>
      <point x="547" y="1025"/>
      <point x="592" y="1129" type="curve"/>
      <point x="535" y="1147" type="line"/>
      <point x="505" y="1085"/>
      <point x="490" y="1057"/>
      <point x="456" y="1057" type="curve" smooth="yes"/>
      <point x="401" y="1057"/>
      <point x="406" y="1142"/>
      <point x="297" y="1142" type="curve" smooth="yes"/>
      <point x="228" y="1142"/>
      <point x="188" y="1111"/>
      <point x="144" y="1013" type="curve"/>
      <point x="201" y="995" type="line"/>
      <point x="232" y="1058"/>
      <point x="249" y="1083"/>
      <point x="286" y="1083" type="curve" smooth="yes"/>
      <point x="348" y="1083"/>
      <point x="338" y="996"/>
    </contour>
    <contour>
      <point x="374" y="939" type="line"/>
      <point x="495" y="802" type="line"/>
      <point x="489" y="782" type="line"/>
      <point x="447" y="782" type="line"/>
      <point x="273" y="898" type="line"/>
      <point x="347" y="884" type="line"/>
      <point x="129" y="782" type="line"/>
      <point x="82" y="782" type="line"/>
      <point x="89" y="802" type="line"/>
      <point x="293" y="939" type="line"/>
    </contour>
  </outline>
</glyph>
<glyph name="currency.proportional" format="2">
  <advance width="715"/>
  <outline>
    <contour>
      <point x="355" y="176" type="curve" smooth="yes"/>
      <point x="498" y="176"/>
      <point x="625" y="284"/>
      <point x="625" y="390" type="curve" smooth="yes"/>
      <point x="625" y="482"/>
      <point x="536" y="571"/>
      <point x="397" y="571" type="curve" smooth="yes"/>
      <point x="252" y="571"/>
      <point x="127" y="463"/>
      <point x="127" y="357" type="curve" smooth="yes"/>
      <point x="127" y="265"/>
      <point x="216" y="176"/>
    </contour>
    <contour>
      <point x="360" y="239" type="curve" smooth="yes"/>
      <point x="263" y="239"/>
      <point x="214" y="281"/>
      <point x="214" y="350" type="curve" smooth="yes"/>
      <point x="214" y="440"/>
      <point x="274" y="508"/>
      <point x="392" y="508" type="curve" smooth="yes"/>
      <point x="489" y="508"/>
      <point x="537" y="466"/>
      <point x="537" y="397" type="curve" smooth="yes"/>
      <point x="537" y="307"/>
      <point x="477" y="239"/>
    </contour>
    <contour>
      <point x="46" y="116" type="line"/>
      <point x="231" y="236" type="line"/>
      <point x="173" y="280" type="line"/>
      <point x="-3" y="168" type="line"/>
    </contour>
    <contour>
      <point x="222" y="482" type="line"/>
      <point x="297" y="520" type="line"/>
      <point x="192" y="637" type="line"/>
      <point x="121" y="593" type="line"/>
    </contour>
    <contour>
      <point x="574" y="467" type="line"/>
      <point x="750" y="575" type="line"/>
      <point x="701" y="627" type="line"/>
      <point x="516" y="511" type="line"/>
    </contour>
    <contour>
      <point x="557" y="109" type="line"/>
      <point x="627" y="153" type="line"/>
      <point x="525" y="264" type="line"/>
      <point x="449" y="226" type="line"/>
    </contour>
  </outline>
</glyph>
<glyph name="f_f.short" format="2">
  <advance width="926"/>
  <outline>
    <contour>
      <point x="522" y="565" type="line"/>
      <point x="506" y="509" type="line"/>
      <point x="937" y="509" type="line"/>
      <point x="952" y="565" type="line"/>
    </contour>
    <contour>
      <point x="561" y="-223" type="line"/>
      <point x="770" y="635" type="line" smooth="yes"/>
      <point x="788" y="707"/>
      <point x="817" y="729"/>
      <point x="883" y="729" type="curve" smooth="yes"/>
      <point x="929" y="729"/>
      <point x="966" y="720"/>
      <point x="990" y="715" type="curve"/>
      <point x="1006" y="776" type="line"/>
      <point x="985" y="782"/>
      <point x="939" y="790"/>
      <point x="890" y="790" type="curve" smooth="yes"/>
      <point x="763" y="790"/>
      <point x="699" y="747"/>
      <point x="676" y="645" type="curve" smooth="yes"/>
      <point x="483" y="-223" type="line"/>
    </contour>
    <contour>
      <point x="93" y="565" type="line"/>
      <point x="77" y="509" type="line"/>
      <point x="577" y="509" type="line"/>
      <point x="592" y="565" type="line"/>
    </contour>
    <contour>
      <point x="132" y="-223" type="line"/>
      <point x="338" y="620" type="line" smooth="yes"/>
      <point x="356" y="693"/>
      <point x="377" y="714"/>
      <point x="447" y="714" type="curve" smooth="yes"/>
      <point x="490" y="714"/>
      <point x="522" y="707"/>
      <point x="544" y="703" type="curve"/>
      <point x="560" y="765" type="line"/>
      <point x="541" y="769"/>
      <point x="499" y="775"/>
      <point x="453" y="775" type="curve" smooth="yes"/>
      <point x="325" y="775"/>
      <point x="266" y="731"/>
      <point x="244" y="630" type="curve" smooth="yes"/>
      <point x="54" y="-223" type="line"/>
    </contour>
  </outline>
</glyph>
<glyph name="f_f_k" format="2">
  <advance width="1629"/>
  <outline>
    <contour>
      <point x="93" y="565" type="line"/>
      <point x="77" y="509" type="line"/>
      <point x="586" y="509" type="line"/>
      <point x="602" y="565" type="line"/>
    </contour>
    <contour>
      <point x="132" y="-223" type="line"/>
      <point x="338" y="620" type="line" smooth="yes"/>
      <point x="356" y="693"/>
      <point x="377" y="714"/>
      <point x="447" y="714" type="curve" smooth="yes"/>
      <point x="490" y="714"/>
      <point x="522" y="707"/>
      <point x="544" y="703" type="curve"/>
      <point x="560" y="765" type="line"/>
      <point x="541" y="769"/>
      <point x="499" y="775"/>
      <point x="453" y="775" type="curve" smooth="yes"/>
      <point x="325" y="775"/>
      <point x="266" y="731"/>
      <point x="244" y="630" type="curve" smooth="yes"/>
      <point x="54" y="-223" type="line"/>
    </contour>
    <contour>
      <point x="522" y="565" type="line"/>
      <point x="506" y="509" type="line"/>
      <point x="934" y="509" type="line"/>
      <point x="949" y="565" type="line"/>
    </contour>
    <contour>
      <point x="561" y="-223" type="line"/>
      <point x="770" y="635" type="line" smooth="yes"/>
      <point x="787" y="706"/>
      <point x="821" y="731"/>
      <point x="941" y="731" type="curve" smooth="yes"/>
      <point x="1037" y="731"/>
      <point x="1116" y="714"/>
      <point x="1168" y="698" type="curve"/>
      <point x="1182" y="746" type="line"/>
      <point x="1136" y="764"/>
      <point x="1051" y="790"/>
      <point x="943" y="790" type="curve" smooth="yes"/>
      <point x="775" y="790"/>
      <point x="698" y="744"/>
      <point x="676" y="645" type="curve" smooth="yes"/>
      <point x="483" y="-223" type="line"/>
    </contour>
    <contour>
      <point x="1421" y="79" type="line" smooth="yes"/>
      <point x="1431" y="62"/>
      <point x="1440" y="57"/>
      <point x="1472" y="57" type="curve"/>
      <point x="1499" y="57"/>
      <point x="1526" y="57"/>
      <point x="1554" y="57" type="curve"/>
      <point x="1542" y="0" type="line"/>
      <point x="1509" y="0"/>
      <point x="1476" y="0"/>
      <point x="1443" y="0" type="curve" smooth="yes"/>
      <point x="1372" y="0"/>
      <point x="1357" y="12"/>
      <point x="1328" y="61" type="curve" smooth="yes"/>
      <point x="1190" y="301" type="line"/>
      <point x="1191" y="306" type="line"/>
      <point x="1302" y="393"/>
      <point x="1412" y="478"/>
      <point x="1522" y="565" type="curve"/>
      <point x="1630" y="565" type="line"/>
      <point x="1630" y="550" type="line"/>
      <point x="1499" y="461"/>
      <point x="1368" y="371"/>
      <point x="1237" y="282" type="curve"/>
      <point x="1270" y="336" type="line"/>
    </contour>
    <contour>
      <point x="944" y="0" type="line"/>
      <point x="1036" y="0" type="line"/>
      <point x="1273" y="780" type="line"/>
      <point x="1032" y="780" type="line"/>
      <point x="1162" y="722" type="line"/>
    </contour>
  </outline>
</glyph>
<glyph name="florin.proportional" format="2">
  <advance width="614"/>
  <outline>
    <contour>
      <point x="122" y="-90" type="curve" smooth="yes"/>
      <point x="422" y="631" type="line" smooth="yes"/>
      <point x="449" y="696"/>
      <point x="475" y="728"/>
      <point x="571" y="728" type="curve" smooth="yes"/>
      <point x="624" y="728"/>
      <point x="673" y="718"/>
      <point x="702" y="710" type="curve"/>
      <point x="725" y="770" type="line"/>
      <point x="701" y="778"/>
      <point x="641" y="790"/>
      <point x="575" y="790" type="curve" smooth="yes"/>
      <point x="444" y="790"/>
      <point x="375" y="743"/>
      <point x="339" y="655" type="curve" smooth="yes"/>
      <point x="34" y="-79" type="line" smooth="yes"/>
      <point x="1" y="-158"/>
      <point x="-34" y="-188"/>
      <point x="-107" y="-188" type="curve" smooth="yes"/>
      <point x="-144" y="-188"/>
      <point x="-180" y="-179"/>
      <point x="-209" y="-171" type="curve"/>
      <point x="-230" y="-232" type="line"/>
      <point x="-201" y="-241"/>
      <point x="-158" y="-250"/>
      <point x="-114" y="-250" type="curve" smooth="yes"/>
      <point x="1" y="-250"/>
      <point x="75" y="-202"/>
    </contour>
    <contour>
      <point x="162" y="565" type="line"/>
      <point x="135" y="509" type="line"/>
      <point x="582" y="509" type="line"/>
      <point x="609" y="565" type="line"/>
    </contour>
  </outline>
</glyph>
<glyph name="g.alt" format="2">
  <advance width="837"/>
  <outline>
    <contour>
      <point x="844" y="525" type="curve"/>
      <point x="870" y="613" type="line"/>
      <point x="857" y="614"/>
      <point x="843" y="614"/>
      <point x="831" y="614" type="curve" smooth="yes"/>
      <point x="727" y="614"/>
      <point x="669" y="574"/>
      <point x="610" y="493" type="curve"/>
      <point x="630" y="497" type="line"/>
      <point x="677" y="515"/>
      <point x="733" y="525"/>
    </contour>
    <contour>
      <point x="406" y="231" type="curve" smooth="yes"/>
      <point x="304" y="231"/>
      <point x="250" y="273"/>
      <point x="250" y="352" type="curve" smooth="yes"/>
      <point x="250" y="438"/>
      <point x="304" y="521"/>
      <point x="438" y="521" type="curve" smooth="yes"/>
      <point x="541" y="521"/>
      <point x="594" y="479"/>
      <point x="594" y="400" type="curve" smooth="yes"/>
      <point x="594" y="314"/>
      <point x="540" y="231"/>
    </contour>
    <contour>
      <point x="406" y="176" type="curve" smooth="yes"/>
      <point x="576" y="176"/>
      <point x="690" y="273"/>
      <point x="690" y="397" type="curve" smooth="yes"/>
      <point x="690" y="499"/>
      <point x="604" y="576"/>
      <point x="438" y="576" type="curve" smooth="yes"/>
      <point x="269" y="576"/>
      <point x="154" y="480"/>
      <point x="154" y="355" type="curve" smooth="yes"/>
      <point x="154" y="253"/>
      <point x="240" y="176"/>
    </contour>
    <contour>
      <point x="169" y="-252" type="curve" smooth="yes"/>
      <point x="371" y="-252" type="line" smooth="yes"/>
      <point x="564" y="-252"/>
      <point x="700" y="-193"/>
      <point x="700" y="-63" type="curve" smooth="yes"/>
      <point x="700" y="17"/>
      <point x="635" y="61"/>
      <point x="503" y="61" type="curve" smooth="yes"/>
      <point x="244" y="61" type="line" smooth="yes"/>
      <point x="176" y="61"/>
      <point x="148" y="77"/>
      <point x="148" y="110" type="curve" smooth="yes"/>
      <point x="148" y="150"/>
      <point x="189" y="180"/>
      <point x="277" y="214" type="curve"/>
      <point x="252" y="234" type="line"/>
      <point x="132" y="203"/>
      <point x="59" y="157"/>
      <point x="59" y="86" type="curve" smooth="yes"/>
      <point x="59" y="30"/>
      <point x="114" y="-10"/>
      <point x="211" y="-13" type="curve"/>
      <point x="214" y="-14" type="line"/>
      <point x="501" y="-14" type="line" smooth="yes"/>
      <point x="578" y="-14"/>
      <point x="610" y="-40"/>
      <point x="610" y="-82" type="curve" smooth="yes"/>
      <point x="610" y="-159"/>
      <point x="532" y="-198"/>
      <point x="384" y="-198" type="curve" smooth="yes"/>
      <point x="185" y="-198" type="line" smooth="yes"/>
      <point x="82" y="-198"/>
      <point x="41" y="-171"/>
      <point x="41" y="-124" type="curve" smooth="yes"/>
      <point x="41" y="-73"/>
      <point x="76" y="-37"/>
      <point x="193" y="6" type="curve"/>
      <point x="165" y="22" type="line"/>
      <point x="14" y="-19"/>
      <point x="-53" y="-61"/>
      <point x="-53" y="-134" type="curve" smooth="yes"/>
      <point x="-53" y="-201"/>
      <point x="7" y="-252"/>
    </contour>
  </outline>
</glyph>
<glyph name="guarani.proportional" format="2">
  <advance width="860"/>
  <outline>
    <contour>
      <point x="528" y="790" type="line"/>
      <point x="494" y="675" type="line"/>
      <point x="505" y="665" type="line"/>
      <point x="315" y="46" type="line"/>
      <point x="298" y="35" type="line"/>
      <point x="252" y="-120" type="line"/>
      <point x="335" y="-120" type="line"/>
      <point x="381" y="36" type="line"/>
      <point x="371" y="46" type="line"/>
      <point x="559" y="661" type="line"/>
      <point x="578" y="679" type="line"/>
      <point x="612" y="790" type="line"/>
    </contour>
    <contour>
      <point x="637" y="267" type="curve" smooth="yes"/>
      <point x="585" y="98" type="line"/>
      <point x="561" y="87"/>
      <point x="505" y="62"/>
      <point x="414" y="62" type="curve" smooth="yes"/>
      <point x="246" y="62"/>
      <point x="164" y="130"/>
      <point x="164" y="276" type="curve" smooth="yes"/>
      <point x="164" y="469"/>
      <point x="256" y="648"/>
      <point x="519" y="648" type="curve" smooth="yes"/>
      <point x="628" y="648"/>
      <point x="718" y="630"/>
      <point x="775" y="592" type="curve"/>
      <point x="775" y="613"/>
      <point x="754" y="639"/>
      <point x="729" y="655" type="curve"/>
      <point x="687" y="516" type="line"/>
      <point x="782" y="516" type="line"/>
      <point x="822" y="645" type="line"/>
      <point x="760" y="670"/>
      <point x="681" y="700"/>
      <point x="522" y="700" type="curve" smooth="yes"/>
      <point x="213" y="700"/>
      <point x="66" y="507"/>
      <point x="66" y="281" type="curve" smooth="yes"/>
      <point x="66" y="116"/>
      <point x="183" y="10"/>
      <point x="410" y="10" type="curve" smooth="yes"/>
      <point x="520" y="10"/>
      <point x="623" y="51"/>
      <point x="665" y="75" type="curve"/>
      <point x="724" y="267" type="line" smooth="yes"/>
      <point x="733" y="296"/>
      <point x="759" y="303"/>
      <point x="798" y="303" type="curve" smooth="yes"/>
      <point x="805" y="303" type="line"/>
      <point x="822" y="358" type="line"/>
      <point x="594" y="358" type="line"/>
      <point x="577" y="303" type="line"/>
      <point x="590" y="303" type="line" smooth="yes"/>
      <point x="632" y="303"/>
      <point x="644" y="290"/>
    </contour>
  </outline>
</glyph>
<glyph name="hook.uc" format="2">
  <advance width="613"/>
  <anchor x="277" y="679" name="_top"/>
  <outline>
    <contour>
      <point x="112" y="931" type="line"/>
      <point x="139" y="1015"/>
      <point x="217" y="1050"/>
      <point x="329" y="1050" type="curve" smooth="yes"/>
      <point x="454" y="1050"/>
      <point x="510" y="1015"/>
      <point x="510" y="948" type="curve" smooth="yes"/>
      <point x="510" y="871"/>
      <point x="430" y="833"/>
      <point x="298" y="833" type="curve"/>
      <point x="348" y="869" type="line"/>
      <point x="321" y="780" type="line"/>
      <point x="228" y="780" type="line"/>
      <point x="257" y="876" type="line"/>
      <point x="369" y="876"/>
      <point x="413" y="893"/>
      <point x="413" y="947" type="curve" smooth="yes"/>
      <point x="413" y="978"/>
      <point x="391" y="994"/>
      <point x="326" y="994" type="curve" smooth="yes"/>
      <point x="266" y="994"/>
      <point x="229" y="979"/>
      <point x="209" y="931" type="curve"/>
    </contour>
  </outline>
</glyph>
<glyph name="kip.proportional" format="2">
  <advance width="826"/>
  <outline>
    <contour>
      <point x="-25" y="0" type="line"/>
      <point x="245" y="0" type="line"/>
      <point x="263" y="56" type="line"/>
      <point x="248" y="56" type="line" smooth="yes"/>
      <point x="212" y="56"/>
      <point x="171" y="59"/>
      <point x="174" y="66" type="curve" smooth="yes"/>
      <point x="350" y="644" type="line" smooth="yes"/>
      <point x="353" y="651"/>
      <point x="394" y="654"/>
      <point x="431" y="654" type="curve" smooth="yes"/>
      <point x="445" y="654" type="line"/>
      <point x="462" y="710" type="line"/>
      <point x="193" y="710" type="line"/>
      <point x="175" y="654" type="line"/>
      <point x="185" y="654" type="line" smooth="yes"/>
      <point x="232" y="654"/>
      <point x="269" y="647"/>
      <point x="261" y="618" type="curve" smooth="yes"/>
      <point x="100" y="92" type="line" smooth="yes"/>
      <point x="91" y="63"/>
      <point x="49" y="56"/>
      <point x="3" y="56" type="curve" smooth="yes"/>
      <point x="-8" y="56" type="line"/>
    </contour>
    <contour>
      <point x="96" y="401" type="line"/>
      <point x="79" y="347" type="line"/>
      <point x="725" y="347" type="line"/>
      <point x="742" y="401" type="line"/>
    </contour>
    <contour>
      <point x="437" y="0" type="line"/>
      <point x="708" y="0" type="line"/>
      <point x="725" y="56" type="line"/>
      <point x="702" y="56" type="line" smooth="yes"/>
      <point x="660" y="56"/>
      <point x="642" y="62"/>
      <point x="623" y="89" type="curve" smooth="yes"/>
      <point x="406" y="400" type="line"/>
      <point x="401" y="362" type="line"/>
      <point x="740" y="625" type="line" smooth="yes"/>
      <point x="766" y="645"/>
      <point x="790" y="654"/>
      <point x="827" y="654" type="curve" smooth="yes"/>
      <point x="851" y="654" type="line"/>
      <point x="869" y="710" type="line"/>
      <point x="619" y="710" type="line"/>
      <point x="601" y="654" type="line"/>
      <point x="614" y="654" type="line" smooth="yes"/>
      <point x="647" y="654"/>
      <point x="682" y="651"/>
      <point x="681" y="644" type="curve"/>
      <point x="332" y="370" type="line"/>
      <point x="347" y="355" type="line"/>
      <point x="544" y="66" type="line"/>
      <point x="542" y="59"/>
      <point x="504" y="56"/>
      <point x="470" y="56" type="curve" smooth="yes"/>
      <point x="455" y="56" type="line"/>
    </contour>
  </outline>
</glyph>
<glyph name="liraTurkish.proportional" format="2">
  <advance width="804"/>
  <outline>
    <contour>
      <point x="41" y="219" type="line"/>
      <point x="24" y="163" type="line"/>
      <point x="634" y="373" type="line"/>
      <point x="651" y="429" type="line"/>
    </contour>
    <contour>
      <point x="99" y="408" type="line"/>
      <point x="81" y="352" type="line"/>
      <point x="692" y="562" type="line"/>
      <point x="709" y="618" type="line"/>
    </contour>
    <contour>
      <point x="379" y="55" type="curve" smooth="yes"/>
      <point x="215" y="55" type="line"/>
      <point x="387" y="618" type="line" smooth="yes"/>
      <point x="395" y="647"/>
      <point x="443" y="654"/>
      <point x="493" y="654" type="curve" smooth="yes"/>
      <point x="510" y="654" type="line"/>
      <point x="528" y="710" type="line"/>
      <point x="210" y="710" type="line"/>
      <point x="192" y="654" type="line"/>
      <point x="207" y="654" type="line" smooth="yes"/>
      <point x="267" y="654"/>
      <point x="307" y="647"/>
      <point x="299" y="618" type="curve" smooth="yes"/>
      <point x="138" y="92" type="line" smooth="yes"/>
      <point x="130" y="63"/>
      <point x="84" y="56"/>
      <point x="24" y="56" type="curve" smooth="yes"/>
      <point x="9" y="56" type="line"/>
      <point x="-8" y="0" type="line"/>
      <point x="349" y="0" type="line" smooth="yes"/>
      <point x="586" y="0"/>
      <point x="684" y="92"/>
      <point x="740" y="260" type="curve"/>
      <point x="660" y="272" type="line"/>
      <point x="619" y="145"/>
      <point x="555" y="55"/>
    </contour>
  </outline>
</glyph>
<glyph name="nine.lintab" format="2">
  <advance width="686"/>
  <outline>
    <contour>
      <point x="390" y="735" type="curve" smooth="yes"/>
      <point x="556" y="735"/>
      <point x="640" y="663"/>
      <point x="640" y="524" type="curve" smooth="yes"/>
      <point x="640" y="249"/>
      <point x="472" y="-6"/>
      <point x="7" y="-15" type="curve"/>
      <point x="15" y="44" type="line"/>
      <point x="306" y="47"/>
      <point x="443" y="163"/>
      <point x="502" y="302" type="curve" smooth="yes"/>
      <point x="535" y="379"/>
      <point x="544" y="463"/>
      <point x="544" y="533" type="curve" smooth="yes"/>
      <point x="544" y="638"/>
      <point x="488" y="680"/>
      <point x="386" y="680" type="curve" smooth="yes"/>
      <point x="289" y="680"/>
      <point x="226" y="626"/>
      <point x="195" y="552" type="curve" smooth="yes"/>
      <point x="180" y="516"/>
      <point x="172" y="474"/>
      <point x="172" y="433" type="curve" smooth="yes"/>
      <point x="172" y="364"/>
      <point x="214" y="322"/>
      <point x="298" y="322" type="curve" smooth="yes"/>
      <point x="390" y="322"/>
      <point x="454" y="359"/>
      <point x="556" y="482" type="curve"/>
      <point x="559" y="434" type="line"/>
      <point x="469" y="322"/>
      <point x="394" y="266"/>
      <point x="265" y="266" type="curve" smooth="yes"/>
      <point x="140" y="266"/>
      <point x="71" y="332"/>
      <point x="71" y="436" type="curve" smooth="yes"/>
      <point x="71" y="580"/>
      <point x="176" y="735"/>
    </contour>
  </outline>
</glyph>
<glyph name="one.oldtab" format="2">
  <advance width="686"/>
  <outline>
    <contour>
      <point x="368" y="89" type="curve" smooth="yes"/>
      <point x="525" y="598" type="line"/>
      <point x="458" y="598" type="line"/>
      <point x="393" y="517"/>
      <point x="308" y="495"/>
      <point x="168" y="492" type="curve"/>
      <point x="147" y="427" type="line"/>
      <point x="278" y="427"/>
      <point x="387" y="465"/>
      <point x="429" y="546" type="curve"/>
      <point x="410" y="532" type="line"/>
      <point x="273" y="89" type="line" smooth="yes"/>
      <point x="265" y="60"/>
      <point x="214" y="53"/>
      <point x="130" y="53" type="curve" smooth="yes"/>
      <point x="58" y="53" type="line"/>
      <point x="42" y="0" type="line"/>
      <point x="530" y="0" type="line"/>
      <point x="545" y="53" type="line"/>
      <point x="502" y="53" type="line"/>
      <point x="411" y="53"/>
      <point x="359" y="60"/>
    </contour>
  </outline>
</glyph>
<glyph name="peseta.proportional" format="2">
  <advance width="988"/>
  <outline>
    <contour>
      <point x="-43" y="0" type="line"/>
      <point x="242" y="0" type="line"/>
      <point x="259" y="56" type="line"/>
      <point x="244" y="56" type="line" smooth="yes"/>
      <point x="200" y="56"/>
      <point x="154" y="59"/>
      <point x="157" y="66" type="curve" smooth="yes"/>
      <point x="214" y="251" type="line"/>
      <point x="306" y="251" type="line" smooth="yes"/>
      <point x="511" y="251"/>
      <point x="639" y="368"/>
      <point x="639" y="528" type="curve" smooth="yes"/>
      <point x="639" y="628"/>
      <point x="563" y="710"/>
      <point x="387" y="710" type="curve" smooth="yes"/>
      <point x="174" y="710" type="line"/>
      <point x="158" y="654" type="line"/>
      <point x="170" y="654" type="line"/>
      <point x="220" y="654"/>
      <point x="247" y="647"/>
      <point x="238" y="618" type="curve" smooth="yes"/>
      <point x="76" y="92" type="line" smooth="yes"/>
      <point x="68" y="63"/>
      <point x="36" y="56"/>
      <point x="-14" y="56" type="curve"/>
      <point x="-26" y="56" type="line"/>
    </contour>
    <contour>
      <point x="388" y="654" type="line" smooth="yes"/>
      <point x="500" y="654"/>
      <point x="553" y="607"/>
      <point x="553" y="530" type="curve" smooth="yes"/>
      <point x="553" y="509"/>
      <point x="551" y="484"/>
      <point x="543" y="458" type="curve" smooth="yes"/>
      <point x="510" y="346"/>
      <point x="432" y="307"/>
      <point x="310" y="307" type="curve" smooth="yes"/>
      <point x="231" y="307" type="line"/>
      <point x="337" y="654" type="line"/>
    </contour>
    <contour>
      <point x="766" y="539" type="line"/>
      <point x="640" y="124" type="line" smooth="yes"/>
      <point x="633" y="101"/>
      <point x="628" y="85"/>
      <point x="628" y="67" type="curve"/>
      <point x="628" y="21"/>
      <point x="665" y="0"/>
      <point x="740" y="0" type="curve" smooth="yes"/>
      <point x="788" y="0"/>
      <point x="850" y="0"/>
      <point x="863" y="0" type="curve"/>
      <point x="881" y="57" type="line"/>
      <point x="869" y="57"/>
      <point x="808" y="57"/>
      <point x="760" y="57" type="curve" smooth="yes"/>
      <point x="729" y="57"/>
      <point x="715" y="65"/>
      <point x="715" y="84" type="curve"/>
      <point x="715" y="94"/>
      <point x="718" y="105"/>
      <point x="723" y="121" type="curve" smooth="yes"/>
      <point x="903" y="710" type="line"/>
      <point x="837" y="710" type="line"/>
      <point x="807" y="617" type="line" smooth="yes"/>
      <point x="789" y="556"/>
      <point x="752" y="544"/>
      <point x="692" y="544" type="curve" smooth="yes"/>
      <point x="624" y="544" type="line"/>
      <point x="611" y="499" type="line"/>
      <point x="1007" y="499" type="line"/>
      <point x="1023" y="555" type="line"/>
      <point x="827" y="555" type="line"/>
    </contour>
  </outline>
</glyph>
<glyph name="ringhalfleft" format="2">
  <advance width="613"/>
  <anchor x="289" y="566" name="_top"/>
  <outline>
    <contour>
      <point x="290" y="634" type="curve"/>
      <point x="290" y="680" type="line"/>
      <point x="240" y="680"/>
      <point x="210" y="700"/>
      <point x="210" y="738" type="curve" smooth="yes"/>
      <point x="210" y="781"/>
      <point x="237" y="820"/>
      <point x="300" y="820" type="curve"/>
      <point x="300" y="866" type="line"/>
      <point x="193" y="866"/>
      <point x="127" y="812"/>
      <point x="127" y="742" type="curve" smooth="yes"/>
      <point x="127" y="681"/>
      <point x="180" y="634"/>
    </contour>
  </outline>
</glyph>
<glyph name="ruble.proportional" format="2">
  <advance width="754"/>
  <outline>
    <contour>
      <point x="88" y="400" type="line"/>
      <point x="477" y="400" type="line" smooth="yes"/>
      <point x="614" y="400"/>
      <point x="671" y="461"/>
      <point x="671" y="553" type="curve" smooth="yes"/>
      <point x="671" y="619"/>
      <point x="623" y="654"/>
      <point x="527" y="654" type="curve" smooth="yes"/>
      <point x="390" y="654" type="line"/>
      <point x="210" y="66" type="line" smooth="yes"/>
      <point x="208" y="59"/>
      <point x="260" y="56"/>
      <point x="302" y="56" type="curve" smooth="yes"/>
      <point x="335" y="56" type="line"/>
      <point x="318" y="0" type="line"/>
      <point x="-19" y="0" type="line"/>
      <point x="-1" y="56" type="line"/>
      <point x="12" y="56" type="line" smooth="yes"/>
      <point x="72" y="56"/>
      <point x="119" y="63"/>
      <point x="127" y="92" type="curve" smooth="yes"/>
      <point x="288" y="618" type="line" smooth="yes"/>
      <point x="297" y="647"/>
      <point x="255" y="654"/>
      <point x="195" y="654" type="curve" smooth="yes"/>
      <point x="182" y="654" type="line"/>
      <point x="199" y="710" type="line"/>
      <point x="523" y="710" type="line" smooth="yes"/>
      <point x="682" y="710"/>
      <point x="766" y="644"/>
      <point x="766" y="553" type="curve" smooth="yes"/>
      <point x="766" y="428"/>
      <point x="649" y="348"/>
      <point x="462" y="348" type="curve" smooth="yes"/>
      <point x="72" y="348" type="line"/>
    </contour>
    <contour>
      <point x="513" y="180" type="line"/>
      <point x="20" y="180" type="line"/>
      <point x="35" y="229" type="line"/>
      <point x="528" y="229" type="line"/>
    </contour>
  </outline>
</glyph>
<glyph name="seven.oldprop" format="2">
  <advance width="685"/>
  <outline>
    <contour>
      <point x="367" y="531" type="line" smooth="yes"/>
      <point x="262" y="531"/>
      <point x="217" y="524"/>
      <point x="201" y="488" type="curve" smooth="yes"/>
      <point x="157" y="383" type="line"/>
      <point x="84" y="383" type="line"/>
      <point x="149" y="598" type="line"/>
      <point x="725" y="598" type="line"/>
      <point x="704" y="528" type="line"/>
      <point x="470" y="357"/>
      <point x="337" y="218"/>
      <point x="230" y="-118" type="curve"/>
      <point x="125" y="-118" type="line"/>
      <point x="240" y="219"/>
      <point x="497" y="453"/>
      <point x="652" y="544" type="curve"/>
      <point x="660" y="531" type="line"/>
    </contour>
  </outline>
</glyph>
<glyph name="six.oldtab" format="2">
  <advance width="686"/>
  <outline>
    <contour>
      <point x="307" y="-10" type="curve" smooth="yes"/>
      <point x="516" y="-10"/>
      <point x="622" y="147"/>
      <point x="622" y="295" type="curve" smooth="yes"/>
      <point x="622" y="402"/>
      <point x="553" y="468"/>
      <point x="426" y="468" type="curve" smooth="yes"/>
      <point x="306" y="468"/>
      <point x="228" y="412"/>
      <point x="141" y="300" type="curve"/>
      <point x="136" y="244" type="line"/>
      <point x="241" y="374"/>
      <point x="305" y="413"/>
      <point x="398" y="413" type="curve" smooth="yes"/>
      <point x="480" y="413"/>
      <point x="521" y="369"/>
      <point x="521" y="299" type="curve" smooth="yes"/>
      <point x="521" y="252"/>
      <point x="510" y="203"/>
      <point x="490" y="162" type="curve" smooth="yes"/>
      <point x="457" y="93"/>
      <point x="399" y="45"/>
      <point x="309" y="45" type="curve" smooth="yes"/>
      <point x="208" y="45"/>
      <point x="148" y="94"/>
      <point x="148" y="194" type="curve" smooth="yes"/>
      <point x="148" y="254"/>
      <point x="158" y="329"/>
      <point x="188" y="400" type="curve" smooth="yes"/>
      <point x="246" y="543"/>
      <point x="382" y="678"/>
      <point x="684" y="681" type="curve"/>
      <point x="692" y="740" type="line"/>
      <point x="228" y="732"/>
      <point x="52" y="458"/>
      <point x="52" y="203" type="curve" smooth="yes"/>
      <point x="52" y="69"/>
      <point x="144" y="-10"/>
    </contour>
  </outline>
</glyph>
<glyph name="sterling.altprop" format="2">
  <advance width="763"/>
  <outline>
    <contour>
      <point x="75" y="376" type="line"/>
      <point x="58" y="322" type="line"/>
      <point x="570" y="322" type="line"/>
      <point x="585" y="376" type="line"/>
    </contour>
    <contour>
      <point x="-10" y="0" type="line"/>
      <point x="618" y="0" type="line"/>
      <point x="684" y="224" type="line"/>
      <point x="612" y="224" type="line"/>
      <point x="558" y="108" type="line" smooth="yes"/>
      <point x="541" y="72"/>
      <point x="496" y="63"/>
      <point x="391" y="63" type="curve" smooth="yes"/>
      <point x="41" y="63" type="line"/>
      <point x="75" y="43" type="line"/>
      <point x="222" y="105"/>
      <point x="326" y="193"/>
      <point x="326" y="322" type="curve" smooth="yes"/>
      <point x="326" y="401"/>
      <point x="290" y="463"/>
      <point x="290" y="532" type="curve" smooth="yes"/>
      <point x="290" y="623"/>
      <point x="348" y="680"/>
      <point x="495" y="680" type="curve" smooth="yes"/>
      <point x="578" y="680"/>
      <point x="657" y="665"/>
      <point x="707" y="634" type="curve"/>
      <point x="702" y="647"/>
      <point x="685" y="681"/>
      <point x="651" y="686" type="curve"/>
      <point x="603" y="529" type="line"/>
      <point x="703" y="529" type="line"/>
      <point x="751" y="685" type="line"/>
      <point x="716" y="703"/>
      <point x="626" y="735"/>
      <point x="496" y="735" type="curve" smooth="yes"/>
      <point x="303" y="735"/>
      <point x="189" y="659"/>
      <point x="189" y="533" type="curve" smooth="yes"/>
      <point x="189" y="458"/>
      <point x="238" y="398"/>
      <point x="238" y="308" type="curve" smooth="yes"/>
      <point x="238" y="189"/>
      <point x="136" y="118"/>
      <point x="10" y="64" type="curve"/>
    </contour>
  </outline>
</glyph>
<glyph name="three.linprop" format="2">
  <advance width="709"/>
  <outline>
    <contour>
      <point x="366" y="380" type="line"/>
      <point x="541" y="381"/>
      <point x="669" y="446"/>
      <point x="669" y="578" type="curve" smooth="yes"/>
      <point x="669" y="668"/>
      <point x="591" y="735"/>
      <point x="421" y="735" type="curve" smooth="yes"/>
      <point x="320" y="735"/>
      <point x="229" y="706"/>
      <point x="192" y="685" type="curve"/>
      <point x="150" y="537" type="line"/>
      <point x="245" y="537" type="line"/>
      <point x="285" y="673" type="line"/>
      <point x="249" y="669"/>
      <point x="224" y="654"/>
      <point x="225" y="640" type="curve"/>
      <point x="258" y="658"/>
      <point x="324" y="680"/>
      <point x="413" y="680" type="curve" smooth="yes"/>
      <point x="520" y="680"/>
      <point x="570" y="646"/>
      <point x="570" y="576" type="curve" smooth="yes"/>
      <point x="570" y="463"/>
      <point x="487" y="409"/>
      <point x="347" y="409" type="curve" smooth="yes"/>
      <point x="214" y="409" type="line"/>
      <point x="197" y="352" type="line"/>
      <point x="319" y="352" type="line" smooth="yes"/>
      <point x="450" y="352"/>
      <point x="510" y="296"/>
      <point x="510" y="216" type="curve" smooth="yes"/>
      <point x="510" y="107"/>
      <point x="439" y="44"/>
      <point x="294" y="44" type="curve" smooth="yes"/>
      <point x="124" y="44"/>
      <point x="85" y="127"/>
      <point x="52" y="201" type="curve"/>
      <point x="-21" y="177" type="line"/>
      <point x="13" y="78"/>
      <point x="87" y="-11"/>
      <point x="294" y="-11" type="curve" smooth="yes"/>
      <point x="476" y="-11"/>
      <point x="610" y="72"/>
      <point x="610" y="210" type="curve" smooth="yes"/>
      <point x="610" y="307"/>
      <point x="528" y="374"/>
      <point x="346" y="382" type="curve"/>
      <point x="399" y="366" type="line"/>
      <point x="407" y="391" type="line"/>
    </contour>
  </outline>
</glyph>
<glyph name="three.midprop" format="2">
  <advance width="712"/>
  <outline>
    <contour>
      <point x="364" y="308" type="line"/>
      <point x="540" y="309"/>
      <point x="664" y="372"/>
      <point x="664" y="504" type="curve" smooth="yes"/>
      <point x="664" y="594"/>
      <point x="587" y="660"/>
      <point x="418" y="660" type="curve" smooth="yes"/>
      <point x="317" y="660"/>
      <point x="227" y="631"/>
      <point x="190" y="610" type="curve"/>
      <point x="148" y="462" type="line"/>
      <point x="244" y="462" type="line"/>
      <point x="284" y="598" type="line"/>
      <point x="248" y="594"/>
      <point x="223" y="579"/>
      <point x="223" y="565" type="curve"/>
      <point x="256" y="583"/>
      <point x="321" y="605"/>
      <point x="410" y="605" type="curve" smooth="yes"/>
      <point x="517" y="605"/>
      <point x="565" y="572"/>
      <point x="565" y="502" type="curve" smooth="yes"/>
      <point x="565" y="390"/>
      <point x="486" y="337"/>
      <point x="345" y="337" type="curve"/>
      <point x="213" y="337" type="line"/>
      <point x="195" y="280" type="line"/>
      <point x="317" y="280" type="line"/>
      <point x="449" y="280"/>
      <point x="507" y="226"/>
      <point x="507" y="145" type="curve" smooth="yes"/>
      <point x="507" y="37"/>
      <point x="438" y="-24"/>
      <point x="293" y="-24" type="curve" smooth="yes"/>
      <point x="124" y="-24"/>
      <point x="84" y="59"/>
      <point x="50" y="133" type="curve"/>
      <point x="-22" y="109" type="line"/>
      <point x="12" y="10"/>
      <point x="86" y="-79"/>
      <point x="293" y="-79" type="curve" smooth="yes"/>
      <point x="476" y="-79"/>
      <point x="607" y="3"/>
      <point x="607" y="140" type="curve" smooth="yes"/>
      <point x="607" y="237"/>
      <point x="526" y="302"/>
      <point x="344" y="310" type="curve"/>
      <point x="398" y="294" type="line"/>
      <point x="405" y="319" type="line"/>
    </contour>
  </outline>
</glyph>
<glyph name="uni20B8.proportional" format="2">
  <advance width="824"/>
  <outline>
    <contour>
      <point x="283" y="92" type="line" smooth="yes"/>
      <point x="275" y="63"/>
      <point x="222" y="56"/>
      <point x="162" y="56" type="curve" smooth="yes"/>
      <point x="137" y="56" type="line"/>
      <point x="121" y="0" type="line"/>
      <point x="486" y="0" type="line"/>
      <point x="502" y="56" type="line"/>
      <point x="477" y="56" type="line" smooth="yes"/>
      <point x="417" y="56"/>
      <point x="369" y="63"/>
      <point x="377" y="92" type="curve" smooth="yes"/>
      <point x="496" y="479" type="line"/>
      <point x="555" y="479" type="line" smooth="yes"/>
      <point x="659" y="479"/>
      <point x="696" y="462"/>
      <point x="690" y="426" type="curve" smooth="yes"/>
      <point x="668" y="300" type="line"/>
      <point x="735" y="300" type="line"/>
      <point x="807" y="535" type="line"/>
      <point x="124" y="535" type="line"/>
      <point x="52" y="300" type="line"/>
      <point x="120" y="300" type="line"/>
      <point x="175" y="426" type="line" smooth="yes"/>
      <point x="191" y="462"/>
      <point x="238" y="479"/>
      <point x="343" y="479" type="curve" smooth="yes"/>
      <point x="401" y="479" type="line"/>
    </contour>
    <contour>
      <point x="183" y="738" type="line"/>
      <point x="163" y="669" type="line"/>
      <point x="851" y="669" type="line"/>
      <point x="872" y="738" type="line"/>
    </contour>
  </outline>
</glyph>
<glyph name="zero.slash" format="2">
  <advance width="686"/>
  <outline>
    <contour>
      <point x="274" y="-11" type="curve" smooth="yes"/>
      <point x="522" y="-11"/>
      <point x="646" y="252"/>
      <point x="646" y="449" type="curve" smooth="yes"/>
      <point x="646" y="584"/>
      <point x="556" y="660"/>
      <point x="413" y="660" type="curve" smooth="yes"/>
      <point x="165" y="660"/>
      <point x="41" y="397"/>
      <point x="41" y="200" type="curve" smooth="yes"/>
      <point x="41" y="65"/>
      <point x="130" y="-11"/>
    </contour>
    <contour>
      <point x="276" y="42" type="curve" smooth="yes"/>
      <point x="178" y="42"/>
      <point x="135" y="88"/>
      <point x="135" y="173" type="curve" smooth="yes"/>
      <point x="135" y="218"/>
      <point x="141" y="275"/>
      <point x="164" y="347" type="curve" smooth="yes"/>
      <point x="219" y="523"/>
      <point x="294" y="607"/>
      <point x="411" y="607" type="curve" smooth="yes"/>
      <point x="508" y="607"/>
      <point x="552" y="561"/>
      <point x="552" y="476" type="curve" smooth="yes"/>
      <point x="552" y="431"/>
      <point x="545" y="374"/>
      <point x="523" y="302" type="curve" smooth="yes"/>
      <point x="468" y="126"/>
      <point x="393" y="42"/>
    </contour>
    <contour>
      <point x="104" y="144" type="line"/>
      <point x="596" y="453" type="line"/>
      <point x="585" y="503" type="line"/>
      <point x="88" y="193" type="line"/>
    </contour>
  </outline>
</glyph>
